<?xml version="1.0" encoding="UTF-8" standalone="no"?>
<!DOCTYPE svg PUBLIC "-//W3C//DTD SVG 1.1//EN"
 "http://www.w3.org/Graphics/SVG/1.1/DTD/svg11.dtd">
<!-- Generated by graphviz version 2.40.1 (20161225.0304)
 -->
<!-- Title: state transitions Pages: 1 -->
<svg width="359pt" height="446pt"
 viewBox="0.00 0.00 358.87 446.00" xmlns="http://www.w3.org/2000/svg" xmlns:xlink="http://www.w3.org/1999/xlink">
<g id="graph0" class="graph" transform="scale(1 1) rotate(0) translate(4 442)">
<title>state transitions</title>
<polygon fill="#ffffff" stroke="transparent" points="-4,4 -4,-442 354.867,-442 354.867,4 -4,4"/>
<g id="clust1" class="cluster state regular">
<title>cluster_state</title>
<path fill="none" stroke="#000000" stroke-width="2" d="M20,-8C20,-8 291,-8 291,-8 297,-8 303,-14 303,-20 303,-20 303,-418 303,-418 303,-424 297,-430 291,-430 291,-430 20,-430 20,-430 14,-430 8,-424 8,-418 8,-418 8,-20 8,-20 8,-14 14,-8 20,-8"/>
<text text-anchor="start" x="142.4944" y="-411.2" font-family="Helvetica,sans-Serif" font-size="12.00" fill="#000000">state</text>
</g>
<!-- state -->
<!-- st0_sleep -->
<g id="node2" class="node state regular">
<title>st0_sleep</title>
<polygon fill="#ffffff" fill-opacity="0.003922" stroke="transparent" stroke-width="2" points="135.5,-392 62.5,-392 62.5,-356 135.5,-356 135.5,-392"/>
<text text-anchor="start" x="73.8242" y="-370.2" font-family="Helvetica,sans-Serif" font-size="12.00" fill="#000000">st0_sleep</text>
<path fill="none" stroke="#000000" stroke-width="2" d="M74.8333,-357C74.8333,-357 123.1667,-357 123.1667,-357 128.8333,-357 134.5,-362.6667 134.5,-368.3333 134.5,-368.3333 134.5,-379.6667 134.5,-379.6667 134.5,-385.3333 128.8333,-391 123.1667,-391 123.1667,-391 74.8333,-391 74.8333,-391 69.1667,-391 63.5,-385.3333 63.5,-379.6667 63.5,-379.6667 63.5,-368.3333 63.5,-368.3333 63.5,-362.6667 69.1667,-357 74.8333,-357"/>
</g>
<!-- st1_BOS -->
<g id="node3" class="node state regular">
<title>st1_BOS</title>
<polygon fill="#ffffff" fill-opacity="0.003922" stroke="transparent" stroke-width="2" points="86,-310 16,-310 16,-274 86,-274 86,-310"/>
<text text-anchor="start" x="26.9916" y="-288.2" font-family="Helvetica,sans-Serif" font-size="12.00" fill="#000000">st1_BOS</text>
<path fill="none" stroke="#000000" stroke-width="2" d="M28.3333,-275C28.3333,-275 73.6667,-275 73.6667,-275 79.3333,-275 85,-280.6667 85,-286.3333 85,-286.3333 85,-297.6667 85,-297.6667 85,-303.3333 79.3333,-309 73.6667,-309 73.6667,-309 28.3333,-309 28.3333,-309 22.6667,-309 17,-303.3333 17,-297.6667 17,-297.6667 17,-286.3333 17,-286.3333 17,-280.6667 22.6667,-275 28.3333,-275"/>
</g>
<!-- st0_sleep&#45;&gt;st1_BOS -->
<g id="edge1" class="edge transition">
<title>st0_sleep&#45;&gt;st1_BOS</title>
<path fill="none" stroke="#000000" d="M78.3427,-355.7335C73.5557,-350.6937 68.8446,-344.9606 65.344,-339 61.9417,-333.2068 59.2753,-326.5302 57.214,-320.062"/>
<polygon fill="#000000" stroke="#000000" points="60.5256,-318.9085 54.454,-310.226 53.7859,-320.7997 60.5256,-318.9085"/>
<text text-anchor="start" x="65" y="-330" font-family="Helvetica,sans-Serif" font-size="10.00" fill="#000000">TCS_CMD(13) = &#39;1&#39; and TCS_CMD_ID = &quot;0001&quot; &#160;&#160;</text>
</g>
<!-- st4_onspill -->
<g id="node5" class="node state regular">
<title>st4_onspill</title>
<polygon fill="#ffffff" fill-opacity="0.003922" stroke="transparent" stroke-width="2" points="94,-216 16,-216 16,-180 94,-180 94,-216"/>
<text text-anchor="start" x="26.6614" y="-194.2" font-family="Helvetica,sans-Serif" font-size="12.00" fill="#000000">st4_onspill</text>
<path fill="none" stroke="#000000" stroke-width="2" d="M28.3333,-181C28.3333,-181 81.6667,-181 81.6667,-181 87.3333,-181 93,-186.6667 93,-192.3333 93,-192.3333 93,-203.6667 93,-203.6667 93,-209.3333 87.3333,-215 81.6667,-215 81.6667,-215 28.3333,-215 28.3333,-215 22.6667,-215 17,-209.3333 17,-203.6667 17,-203.6667 17,-192.3333 17,-192.3333 17,-186.6667 22.6667,-181 28.3333,-181"/>
</g>
<!-- st1_BOS&#45;&gt;st4_onspill -->
<g id="edge2" class="edge transition">
<title>st1_BOS&#45;&gt;st4_onspill</title>
<path fill="none" stroke="#000000" d="M51.7712,-273.8759C52.3467,-260.3516 53.1439,-241.6192 53.8021,-226.1514"/>
<polygon fill="#000000" stroke="#000000" points="57.3027,-226.2083 54.2311,-216.0685 50.309,-225.9106 57.3027,-226.2083"/>
<text text-anchor="start" x="53" y="-242" font-family="Helvetica,sans-Serif" font-size="10.00" fill="#000000">readout_rdy = &#39;0&#39; &#160;&#160;</text>
</g>
<!-- st1_BOS&#45;&gt;st4_onspill -->
<g id="edge3" class="edge transition">
<title>st1_BOS&#45;&gt;st4_onspill</title>
<path fill="none" stroke="#000000" d="M86.1381,-287.5616C105.1842,-283.1655 127.1842,-274.4155 139,-257 144.9887,-248.1731 144.9168,-241.8752 139,-233 130.8903,-220.8355 117.6675,-212.8921 104.0878,-207.7076"/>
<polygon fill="#000000" stroke="#000000" points="104.7985,-204.2546 94.2046,-204.3991 102.5764,-210.8926 104.7985,-204.2546"/>
<text text-anchor="start" x="143" y="-248" font-family="Helvetica,sans-Serif" font-size="10.00" fill="#000000">threePeriodBOS = 1 &#160;&#160;</text>
<text text-anchor="start" x="143" y="-236" font-family="Helvetica,sans-Serif" font-size="10.00" fill="#000000">not (readout_rdy = &#39;0&#39;) &#160;&#160;</text>
</g>
<!-- st2_EOS -->
<g id="node4" class="node state regular">
<title>st2_EOS</title>
<polygon fill="#ffffff" fill-opacity="0.003922" stroke="transparent" stroke-width="2" points="116,-134 46,-134 46,-98 116,-98 116,-134"/>
<text text-anchor="start" x="56.9916" y="-112.2" font-family="Helvetica,sans-Serif" font-size="12.00" fill="#000000">st2_EOS</text>
<path fill="none" stroke="#000000" stroke-width="2" d="M58.3333,-99C58.3333,-99 103.6667,-99 103.6667,-99 109.3333,-99 115,-104.6667 115,-110.3333 115,-110.3333 115,-121.6667 115,-121.6667 115,-127.3333 109.3333,-133 103.6667,-133 103.6667,-133 58.3333,-133 58.3333,-133 52.6667,-133 47,-127.3333 47,-121.6667 47,-121.6667 47,-110.3333 47,-110.3333 47,-104.6667 52.6667,-99 58.3333,-99"/>
</g>
<!-- st3_greset -->
<g id="node6" class="node state regular">
<title>st3_greset</title>
<polygon fill="#ffffff" fill-opacity="0.003922" stroke="transparent" stroke-width="2" points="223,-52 145,-52 145,-16 223,-16 223,-52"/>
<text text-anchor="start" x="155.9908" y="-30.2" font-family="Helvetica,sans-Serif" font-size="12.00" fill="#000000">st3_greset</text>
<path fill="none" stroke="#000000" stroke-width="2" d="M157.3333,-17C157.3333,-17 210.6667,-17 210.6667,-17 216.3333,-17 222,-22.6667 222,-28.3333 222,-28.3333 222,-39.6667 222,-39.6667 222,-45.3333 216.3333,-51 210.6667,-51 210.6667,-51 157.3333,-51 157.3333,-51 151.6667,-51 146,-45.3333 146,-39.6667 146,-39.6667 146,-28.3333 146,-28.3333 146,-22.6667 151.6667,-17 157.3333,-17"/>
</g>
<!-- st2_EOS&#45;&gt;st3_greset -->
<g id="edge4" class="edge transition">
<title>st2_EOS&#45;&gt;st3_greset</title>
<path fill="none" stroke="#000000" d="M103.859,-97.8015C118.3942,-86.2298 137.3925,-71.105 153.2432,-58.486"/>
<polygon fill="#000000" stroke="#000000" points="155.5613,-61.1143 161.2049,-52.1476 151.2014,-55.6378 155.5613,-61.1143"/>
<text text-anchor="start" x="139" y="-72" font-family="Helvetica,sans-Serif" font-size="10.00" fill="#000000">twoPeriodEOS = 1 &#160;&#160;</text>
</g>
<!-- st4_onspill&#45;&gt;st2_EOS -->
<g id="edge5" class="edge transition">
<title>st4_onspill&#45;&gt;st2_EOS</title>
<path fill="none" stroke="#000000" d="M52.5522,-179.7197C52.006,-170.84 52.3157,-160.1401 55.344,-151 56.277,-148.184 57.5299,-145.4062 58.9823,-142.7216"/>
<polygon fill="#000000" stroke="#000000" points="62.0961,-144.3478 64.5136,-134.0324 56.191,-140.5888 62.0961,-144.3478"/>
<text text-anchor="start" x="55" y="-154" font-family="Helvetica,sans-Serif" font-size="10.00" fill="#000000">TCS_CMD(14) = &#39;1&#39; and TCS_CMD_ID = &quot;0001&quot; &#160;&#160;</text>
</g>
<!-- st3_greset&#45;&gt;st0_sleep -->
<g id="edge6" class="edge transition">
<title>st3_greset&#45;&gt;st0_sleep</title>
<path fill="none" stroke="#000000" d="M223.2356,-42.5427C251.2512,-49.8151 284,-61.2556 284,-75 284,-142.5 284,-142.5 284,-142.5 284,-197.347 294,-210.653 294,-265.5 294,-333 294,-333 294,-333 294,-348.0937 203.3741,-361.6626 145.6861,-368.7709"/>
<polygon fill="#000000" stroke="#000000" points="145.1858,-365.3058 135.678,-369.9803 146.0257,-372.2552 145.1858,-365.3058"/>
<text text-anchor="start" x="290" y="-195" font-family="Helvetica,sans-Serif" font-size="10.00" fill="#000000">count_a = 1 &#160;&#160;</text>
</g>
</g>
</svg>
