<?xml version="1.0" encoding="UTF-8" standalone="no"?>
<!DOCTYPE svg PUBLIC "-//W3C//DTD SVG 1.1//EN"
 "http://www.w3.org/Graphics/SVG/1.1/DTD/svg11.dtd">
<!-- Generated by graphviz version 2.40.1 (20161225.0304)
 -->
<!-- Title: state transitions Pages: 1 -->
<svg width="733pt" height="598pt"
 viewBox="0.00 0.00 733.00 598.00" xmlns="http://www.w3.org/2000/svg" xmlns:xlink="http://www.w3.org/1999/xlink">
<g id="graph0" class="graph" transform="scale(1 1) rotate(0) translate(4 594)">
<title>state transitions</title>
<polygon fill="#ffffff" stroke="transparent" points="-4,4 -4,-594 729,-594 729,4 -4,4"/>
<g id="clust1" class="cluster state regular">
<title>cluster_cfmem_logic</title>
<path fill="none" stroke="#000000" stroke-width="2" d="M20,-8C20,-8 705,-8 705,-8 711,-8 717,-14 717,-20 717,-20 717,-570 717,-570 717,-576 711,-582 705,-582 705,-582 20,-582 20,-582 14,-582 8,-576 8,-570 8,-570 8,-20 8,-20 8,-14 14,-8 20,-8"/>
<text text-anchor="start" x="329.3334" y="-563.2" font-family="Helvetica,sans-Serif" font-size="12.00" fill="#000000">cfmem_logic</text>
</g>
<!-- cfmem_logic -->
<!-- st_wait -->
<g id="node2" class="node state regular">
<title>st_wait</title>
<polygon fill="#ffffff" fill-opacity="0.003922" stroke="transparent" stroke-width="2" points="401.5,-544 342.5,-544 342.5,-508 401.5,-508 401.5,-544"/>
<text text-anchor="start" x="353.8316" y="-522.2" font-family="Helvetica,sans-Serif" font-size="12.00" fill="#000000">st_wait</text>
<path fill="none" stroke="#000000" stroke-width="2" d="M354.8333,-509C354.8333,-509 389.1667,-509 389.1667,-509 394.8333,-509 400.5,-514.6667 400.5,-520.3333 400.5,-520.3333 400.5,-531.6667 400.5,-531.6667 400.5,-537.3333 394.8333,-543 389.1667,-543 389.1667,-543 354.8333,-543 354.8333,-543 349.1667,-543 343.5,-537.3333 343.5,-531.6667 343.5,-531.6667 343.5,-520.3333 343.5,-520.3333 343.5,-514.6667 349.1667,-509 354.8333,-509"/>
</g>
<!-- st_srcid -->
<g id="node3" class="node state regular">
<title>st_srcid</title>
<polygon fill="#ffffff" fill-opacity="0.003922" stroke="transparent" stroke-width="2" points="124.5,-462 61.5,-462 61.5,-426 124.5,-426 124.5,-462"/>
<text text-anchor="start" x="72.833" y="-440.2" font-family="Helvetica,sans-Serif" font-size="12.00" fill="#000000">st_srcid</text>
<path fill="none" stroke="#000000" stroke-width="2" d="M73.8333,-427C73.8333,-427 112.1667,-427 112.1667,-427 117.8333,-427 123.5,-432.6667 123.5,-438.3333 123.5,-438.3333 123.5,-449.6667 123.5,-449.6667 123.5,-455.3333 117.8333,-461 112.1667,-461 112.1667,-461 73.8333,-461 73.8333,-461 68.1667,-461 62.5,-455.3333 62.5,-449.6667 62.5,-449.6667 62.5,-438.3333 62.5,-438.3333 62.5,-432.6667 68.1667,-427 73.8333,-427"/>
</g>
<!-- st_wait&#45;&gt;st_srcid -->
<g id="edge1" class="edge transition">
<title>st_wait&#45;&gt;st_srcid</title>
<path fill="none" stroke="#000000" d="M342.3577,-524.506C273.3337,-520.7245 106.4637,-509.7211 89.922,-491 85.3383,-485.8124 84.1228,-478.9161 84.549,-472.0085"/>
<polygon fill="#000000" stroke="#000000" points="88.0138,-472.5067 86.1471,-462.0776 81.1027,-471.3944 88.0138,-472.5067"/>
<text text-anchor="start" x="89" y="-482" font-family="Helvetica,sans-Serif" font-size="10.00" fill="#000000">load_conf_data = &#39;1&#39; &#160;&#160;</text>
</g>
<!-- st_changedelays -->
<g id="node9" class="node state regular">
<title>st_changedelays</title>
<polygon fill="#ffffff" fill-opacity="0.003922" stroke="transparent" stroke-width="2" points="305,-462 193,-462 193,-426 305,-426 305,-462"/>
<text text-anchor="start" x="203.9826" y="-440.2" font-family="Helvetica,sans-Serif" font-size="12.00" fill="#000000">st_changedelays</text>
<path fill="none" stroke="#000000" stroke-width="2" d="M205.3333,-427C205.3333,-427 292.6667,-427 292.6667,-427 298.3333,-427 304,-432.6667 304,-438.3333 304,-438.3333 304,-449.6667 304,-449.6667 304,-455.3333 298.3333,-461 292.6667,-461 292.6667,-461 205.3333,-461 205.3333,-461 199.6667,-461 194,-455.3333 194,-449.6667 194,-449.6667 194,-438.3333 194,-438.3333 194,-432.6667 199.6667,-427 205.3333,-427"/>
</g>
<!-- st_wait&#45;&gt;st_changedelays -->
<g id="edge2" class="edge transition">
<title>st_wait&#45;&gt;st_changedelays</title>
<path fill="none" stroke="#000000" d="M342.1677,-524.4601C297.0936,-521.4392 214.9614,-512.9918 196.931,-491 190.3694,-482.9968 193.9026,-475.1276 201.5512,-468.1855"/>
<polygon fill="#000000" stroke="#000000" points="203.7204,-470.933 209.561,-462.0935 199.4828,-465.3614 203.7204,-470.933"/>
<text text-anchor="start" x="196" y="-482" font-family="Helvetica,sans-Serif" font-size="10.00" fill="#000000">del_change_fr = &#39;1&#39; &#160;&#160;</text>
</g>
<!-- st_writeedges -->
<g id="node10" class="node state regular">
<title>st_writeedges</title>
<polygon fill="#ffffff" fill-opacity="0.003922" stroke="transparent" stroke-width="2" points="608,-462 512,-462 512,-426 608,-426 608,-462"/>
<text text-anchor="start" x="522.9926" y="-440.2" font-family="Helvetica,sans-Serif" font-size="12.00" fill="#000000">st_writeedges</text>
<path fill="none" stroke="#000000" stroke-width="2" d="M524.3333,-427C524.3333,-427 595.6667,-427 595.6667,-427 601.3333,-427 607,-432.6667 607,-438.3333 607,-438.3333 607,-449.6667 607,-449.6667 607,-455.3333 601.3333,-461 595.6667,-461 595.6667,-461 524.3333,-461 524.3333,-461 518.6667,-461 513,-455.3333 513,-449.6667 513,-449.6667 513,-438.3333 513,-438.3333 513,-432.6667 518.6667,-427 524.3333,-427"/>
</g>
<!-- st_wait&#45;&gt;st_writeedges -->
<g id="edge3" class="edge transition">
<title>st_wait&#45;&gt;st_writeedges</title>
<path fill="none" stroke="#000000" d="M401.6985,-513.6957C411.9517,-509.4079 423.4987,-504.5349 434,-500 459.3031,-489.0731 487.3329,-476.6474 510.5185,-466.2814"/>
<polygon fill="#000000" stroke="#000000" points="512.1092,-469.4041 519.8061,-462.1234 509.2489,-463.0151 512.1092,-469.4041"/>
<text text-anchor="start" x="480" y="-482" font-family="Helvetica,sans-Serif" font-size="10.00" fill="#000000">readback_edges = &#39;1&#39; &#160;&#160;</text>
</g>
<!-- st_latency -->
<g id="node4" class="node state regular">
<title>st_latency</title>
<polygon fill="#ffffff" fill-opacity="0.003922" stroke="transparent" stroke-width="2" points="132,-380 56,-380 56,-344 132,-344 132,-380"/>
<text text-anchor="start" x="66.9922" y="-358.2" font-family="Helvetica,sans-Serif" font-size="12.00" fill="#000000">st_latency</text>
<path fill="none" stroke="#000000" stroke-width="2" d="M68.3333,-345C68.3333,-345 119.6667,-345 119.6667,-345 125.3333,-345 131,-350.6667 131,-356.3333 131,-356.3333 131,-367.6667 131,-367.6667 131,-373.3333 125.3333,-379 119.6667,-379 119.6667,-379 68.3333,-379 68.3333,-379 62.6667,-379 57,-373.3333 57,-367.6667 57,-367.6667 57,-356.3333 57,-356.3333 57,-350.6667 62.6667,-345 68.3333,-345"/>
</g>
<!-- st_srcid&#45;&gt;st_latency -->
<g id="edge4" class="edge transition">
<title>st_srcid&#45;&gt;st_latency</title>
<path fill="none" stroke="#000000" d="M93.2219,-425.8015C93.3488,-415.3976 93.5107,-402.1215 93.6539,-390.3768"/>
<polygon fill="#000000" stroke="#000000" points="97.1564,-390.1896 93.7787,-380.1476 90.1569,-390.1041 97.1564,-390.1896"/>
<text text-anchor="start" x="93" y="-400" font-family="Helvetica,sans-Serif" font-size="10.00" fill="#000000">cfmem_wb_ack = &#39;1&#39; &#160;&#160;</text>
</g>
<!-- st_baseline -->
<g id="node5" class="node state regular">
<title>st_baseline</title>
<polygon fill="#ffffff" fill-opacity="0.003922" stroke="transparent" stroke-width="2" points="242,-298 160,-298 160,-262 242,-262 242,-298"/>
<text text-anchor="start" x="170.6574" y="-276.2" font-family="Helvetica,sans-Serif" font-size="12.00" fill="#000000">st_baseline</text>
<path fill="none" stroke="#000000" stroke-width="2" d="M172.3333,-263C172.3333,-263 229.6667,-263 229.6667,-263 235.3333,-263 241,-268.6667 241,-274.3333 241,-274.3333 241,-285.6667 241,-285.6667 241,-291.3333 235.3333,-297 229.6667,-297 229.6667,-297 172.3333,-297 172.3333,-297 166.6667,-297 161,-291.3333 161,-285.6667 161,-285.6667 161,-274.3333 161,-274.3333 161,-268.6667 166.6667,-263 172.3333,-263"/>
</g>
<!-- st_latency&#45;&gt;st_baseline -->
<g id="edge5" class="edge transition">
<title>st_latency&#45;&gt;st_baseline</title>
<path fill="none" stroke="#000000" d="M117.7468,-343.8015C132.8464,-332.2298 152.5825,-317.105 169.0488,-304.486"/>
<polygon fill="#000000" stroke="#000000" points="171.5113,-307.0084 177.3196,-298.1476 167.2534,-301.4523 171.5113,-307.0084"/>
<text text-anchor="start" x="154" y="-318" font-family="Helvetica,sans-Serif" font-size="10.00" fill="#000000">cfmem_wb_ack = &#39;1&#39; &#160;&#160;</text>
</g>
<!-- st_cfd -->
<g id="node6" class="node state regular">
<title>st_cfd</title>
<polygon fill="#ffffff" fill-opacity="0.003922" stroke="transparent" stroke-width="2" points="284,-216 228,-216 228,-180 284,-180 284,-216"/>
<text text-anchor="start" x="239.9944" y="-194.2" font-family="Helvetica,sans-Serif" font-size="12.00" fill="#000000">st_cfd</text>
<path fill="none" stroke="#000000" stroke-width="2" d="M240.3333,-181C240.3333,-181 271.6667,-181 271.6667,-181 277.3333,-181 283,-186.6667 283,-192.3333 283,-192.3333 283,-203.6667 283,-203.6667 283,-209.3333 277.3333,-215 271.6667,-215 271.6667,-215 240.3333,-215 240.3333,-215 234.6667,-215 229,-209.3333 229,-203.6667 229,-203.6667 229,-192.3333 229,-192.3333 229,-186.6667 234.6667,-181 240.3333,-181"/>
</g>
<!-- st_baseline&#45;&gt;st_cfd -->
<g id="edge6" class="edge transition">
<title>st_baseline&#45;&gt;st_cfd</title>
<path fill="none" stroke="#000000" d="M213.2063,-261.8015C220.5406,-250.8668 230.0029,-236.7593 238.1641,-224.5916"/>
<polygon fill="#000000" stroke="#000000" points="241.1642,-226.4021 243.8278,-216.1476 235.3507,-222.5029 241.1642,-226.4021"/>
<text text-anchor="start" x="232" y="-236" font-family="Helvetica,sans-Serif" font-size="10.00" fill="#000000">cfmem_wb_ack = &#39;1&#39; &#160;&#160;</text>
</g>
<!-- st_t_cfd -->
<g id="node7" class="node state regular">
<title>st_t_cfd</title>
<polygon fill="#ffffff" fill-opacity="0.003922" stroke="transparent" stroke-width="2" points="318,-134 254,-134 254,-98 318,-98 318,-134"/>
<text text-anchor="start" x="264.9916" y="-112.2" font-family="Helvetica,sans-Serif" font-size="12.00" fill="#000000">st_t_cfd</text>
<path fill="none" stroke="#000000" stroke-width="2" d="M266.3333,-99C266.3333,-99 305.6667,-99 305.6667,-99 311.3333,-99 317,-104.6667 317,-110.3333 317,-110.3333 317,-121.6667 317,-121.6667 317,-127.3333 311.3333,-133 305.6667,-133 305.6667,-133 266.3333,-133 266.3333,-133 260.6667,-133 255,-127.3333 255,-121.6667 255,-121.6667 255,-110.3333 255,-110.3333 255,-104.6667 260.6667,-99 266.3333,-99"/>
</g>
<!-- st_cfd&#45;&gt;st_t_cfd -->
<g id="edge7" class="edge transition">
<title>st_cfd&#45;&gt;st_t_cfd</title>
<path fill="none" stroke="#000000" d="M262.658,-179.8015C266.542,-169.1853 271.5201,-155.5784 275.8806,-143.6596"/>
<polygon fill="#000000" stroke="#000000" points="279.2117,-144.7414 279.3606,-134.1476 272.6378,-142.3363 279.2117,-144.7414"/>
<text text-anchor="start" x="272" y="-154" font-family="Helvetica,sans-Serif" font-size="10.00" fill="#000000">cfmem_wb_ack = &#39;1&#39; &#160;&#160;</text>
</g>
<!-- st_t_max_dist -->
<g id="node8" class="node state regular">
<title>st_t_max_dist</title>
<polygon fill="#ffffff" fill-opacity="0.003922" stroke="transparent" stroke-width="2" points="409,-52 313,-52 313,-16 409,-16 409,-52"/>
<text text-anchor="start" x="323.992" y="-30.2" font-family="Helvetica,sans-Serif" font-size="12.00" fill="#000000">st_t_max_dist</text>
<path fill="none" stroke="#000000" stroke-width="2" d="M325.3333,-17C325.3333,-17 396.6667,-17 396.6667,-17 402.3333,-17 408,-22.6667 408,-28.3333 408,-28.3333 408,-39.6667 408,-39.6667 408,-45.3333 402.3333,-51 396.6667,-51 396.6667,-51 325.3333,-51 325.3333,-51 319.6667,-51 314,-45.3333 314,-39.6667 314,-39.6667 314,-28.3333 314,-28.3333 314,-22.6667 319.6667,-17 325.3333,-17"/>
</g>
<!-- st_t_cfd&#45;&gt;st_t_max_dist -->
<g id="edge8" class="edge transition">
<title>st_t_cfd&#45;&gt;st_t_max_dist</title>
<path fill="none" stroke="#000000" d="M299.3295,-97.5791C306.053,-88.666 314.5289,-77.9788 322.838,-69 325.8738,-65.7195 329.1699,-62.3931 332.5106,-59.1623"/>
<polygon fill="#000000" stroke="#000000" points="334.9239,-61.6974 339.8116,-52.2974 330.1287,-56.5977 334.9239,-61.6974"/>
<text text-anchor="start" x="322" y="-72" font-family="Helvetica,sans-Serif" font-size="10.00" fill="#000000">cfmem_wb_ack = &#39;1&#39; &#160;&#160;</text>
</g>
<!-- st_t_max_dist&#45;&gt;st_wait -->
<g id="edge9" class="edge transition">
<title>st_t_max_dist&#45;&gt;st_wait</title>
<path fill="none" stroke="#000000" d="M409.3368,-48.0845C419.9021,-54.2096 428,-62.863 428,-75 428,-485 428,-485 428,-485 428,-496.4629 420.2666,-505.0683 410.5475,-511.3568"/>
<polygon fill="#000000" stroke="#000000" points="408.6851,-508.3875 401.6398,-516.3004 412.0819,-514.5081 408.6851,-508.3875"/>
<text text-anchor="start" x="428" y="-277" font-family="Helvetica,sans-Serif" font-size="10.00" fill="#000000">cfmem_wb_ack = &#39;1&#39; &#160;&#160;</text>
</g>
<!-- st_changedelays&#45;&gt;st_wait -->
<g id="edge10" class="edge transition">
<title>st_changedelays&#45;&gt;st_wait</title>
<path fill="none" stroke="#000000" d="M276.2214,-462.1476C293.8815,-473.921 317.0825,-489.3884 336.2264,-502.151"/>
<polygon fill="#000000" stroke="#000000" points="334.4403,-505.1667 344.7023,-507.8015 338.3233,-499.3423 334.4403,-505.1667"/>
<text text-anchor="start" x="318" y="-482" font-family="Helvetica,sans-Serif" font-size="10.00" fill="#000000">del_load_cnt = 13 &#160;&#160;</text>
</g>
<!-- st_writeedges&#45;&gt;st_wait -->
<g id="edge11" class="edge transition">
<title>st_writeedges&#45;&gt;st_wait</title>
<path fill="none" stroke="#000000" d="M582.1737,-462.2838C590.554,-471.3659 596.4599,-482.2405 589,-491 577.6798,-504.2924 471.6434,-516.4669 412.0995,-522.3286"/>
<polygon fill="#000000" stroke="#000000" points="411.5238,-518.8679 401.9075,-523.3151 412.1982,-525.8353 411.5238,-518.8679"/>
<text text-anchor="start" x="592" y="-482" font-family="Helvetica,sans-Serif" font-size="10.00" fill="#000000">del_load_cnt = 13 &#160;&#160;</text>
</g>
</g>
</svg>
