<?xml version="1.0" encoding="UTF-8" standalone="no"?>
<!DOCTYPE svg PUBLIC "-//W3C//DTD SVG 1.1//EN"
 "http://www.w3.org/Graphics/SVG/1.1/DTD/svg11.dtd">
<!-- Generated by graphviz version 2.40.1 (20161225.0304)
 -->
<!-- Title: state transitions Pages: 1 -->
<svg width="321pt" height="270pt"
 viewBox="0.00 0.00 321.00 270.00" xmlns="http://www.w3.org/2000/svg" xmlns:xlink="http://www.w3.org/1999/xlink">
<g id="graph0" class="graph" transform="scale(1 1) rotate(0) translate(4 266)">
<title>state transitions</title>
<polygon fill="#ffffff" stroke="transparent" points="-4,4 -4,-266 317,-266 317,4 -4,4"/>
<g id="clust1" class="cluster state regular">
<title>cluster_bos_logic</title>
<path fill="none" stroke="#000000" stroke-width="2" d="M20,-8C20,-8 293,-8 293,-8 299,-8 305,-14 305,-20 305,-20 305,-242 305,-242 305,-248 299,-254 293,-254 293,-254 20,-254 20,-254 14,-254 8,-248 8,-242 8,-242 8,-20 8,-20 8,-14 14,-8 20,-8"/>
<text text-anchor="start" x="131.1602" y="-235.2" font-family="Helvetica,sans-Serif" font-size="12.00" fill="#000000">bos_logic</text>
</g>
<!-- bos_logic -->
<!-- st_wait -->
<g id="node2" class="node state regular">
<title>st_wait</title>
<polygon fill="#ffffff" fill-opacity="0.003922" stroke="transparent" stroke-width="2" points="240.5,-216 181.5,-216 181.5,-180 240.5,-180 240.5,-216"/>
<text text-anchor="start" x="192.8316" y="-194.2" font-family="Helvetica,sans-Serif" font-size="12.00" fill="#000000">st_wait</text>
<path fill="none" stroke="#000000" stroke-width="2" d="M193.8333,-181C193.8333,-181 228.1667,-181 228.1667,-181 233.8333,-181 239.5,-186.6667 239.5,-192.3333 239.5,-192.3333 239.5,-203.6667 239.5,-203.6667 239.5,-209.3333 233.8333,-215 228.1667,-215 228.1667,-215 193.8333,-215 193.8333,-215 188.1667,-215 182.5,-209.3333 182.5,-203.6667 182.5,-203.6667 182.5,-192.3333 182.5,-192.3333 182.5,-186.6667 188.1667,-181 193.8333,-181"/>
</g>
<!-- st_armed -->
<g id="node3" class="node state regular">
<title>st_armed</title>
<polygon fill="#ffffff" fill-opacity="0.003922" stroke="transparent" stroke-width="2" points="88,-134 16,-134 16,-98 88,-98 88,-134"/>
<text text-anchor="start" x="26.9962" y="-112.2" font-family="Helvetica,sans-Serif" font-size="12.00" fill="#000000">st_armed</text>
<path fill="none" stroke="#000000" stroke-width="2" d="M28.3333,-99C28.3333,-99 75.6667,-99 75.6667,-99 81.3333,-99 87,-104.6667 87,-110.3333 87,-110.3333 87,-121.6667 87,-121.6667 87,-127.3333 81.3333,-133 75.6667,-133 75.6667,-133 28.3333,-133 28.3333,-133 22.6667,-133 17,-127.3333 17,-121.6667 17,-121.6667 17,-110.3333 17,-110.3333 17,-104.6667 22.6667,-99 28.3333,-99"/>
</g>
<!-- st_wait&#45;&gt;st_armed -->
<g id="edge1" class="edge transition">
<title>st_wait&#45;&gt;st_armed</title>
<path fill="none" stroke="#000000" d="M181.452,-195.5562C140.7942,-191.5279 70.7851,-181.9775 54.679,-163 50.3755,-157.9293 48.5372,-151.3332 48.0318,-144.694"/>
<polygon fill="#000000" stroke="#000000" points="51.5348,-144.4851 48.1718,-134.4382 44.5355,-144.3895 51.5348,-144.4851"/>
<text text-anchor="start" x="54" y="-154" font-family="Helvetica,sans-Serif" font-size="10.00" fill="#000000">res_ct_bos_edge_detected = &#39;1&#39; &#160;&#160;</text>
</g>
<!-- st_send_bos -->
<g id="node4" class="node state regular">
<title>st_send_bos</title>
<polygon fill="#ffffff" fill-opacity="0.003922" stroke="transparent" stroke-width="2" points="224,-52 134,-52 134,-16 224,-16 224,-52"/>
<text text-anchor="start" x="144.9848" y="-30.2" font-family="Helvetica,sans-Serif" font-size="12.00" fill="#000000">st_send_bos</text>
<path fill="none" stroke="#000000" stroke-width="2" d="M146.3333,-17C146.3333,-17 211.6667,-17 211.6667,-17 217.3333,-17 223,-22.6667 223,-28.3333 223,-28.3333 223,-39.6667 223,-39.6667 223,-45.3333 217.3333,-51 211.6667,-51 211.6667,-51 146.3333,-51 146.3333,-51 140.6667,-51 135,-45.3333 135,-39.6667 135,-39.6667 135,-28.3333 135,-28.3333 135,-22.6667 140.6667,-17 146.3333,-17"/>
</g>
<!-- st_wait&#45;&gt;st_send_bos -->
<g id="edge2" class="edge transition">
<title>st_wait&#45;&gt;st_send_bos</title>
<path fill="none" stroke="#000000" d="M213.5635,-179.6459C213.8713,-170.1042 212.4952,-158.8323 206,-151 189.2508,-130.8029 165.1199,-155.0559 149.464,-134 139.9172,-121.1603 142.0409,-112.1739 149.464,-98 155.6189,-86.2476 167.2312,-92.4099 174,-81 177.352,-75.3497 179.0964,-68.6366 179.9108,-62.0781"/>
<polygon fill="#000000" stroke="#000000" points="183.4056,-62.2691 180.5227,-52.0741 176.4187,-61.8417 183.4056,-62.2691"/>
<text text-anchor="start" x="149" y="-113" font-family="Helvetica,sans-Serif" font-size="10.00" fill="#000000">bos_edge_detected = &#39;1&#39; &#160;&#160;</text>
</g>
<!-- st_armed&#45;&gt;st_send_bos -->
<g id="edge3" class="edge transition">
<title>st_armed&#45;&gt;st_send_bos</title>
<path fill="none" stroke="#000000" d="M48.6989,-97.6699C48.0389,-88.1352 49.052,-76.8624 55.464,-69 64.4748,-57.9511 95.325,-49.2052 123.9394,-43.2195"/>
<polygon fill="#000000" stroke="#000000" points="124.8104,-46.6146 133.9279,-41.2182 123.4351,-39.7511 124.8104,-46.6146"/>
<text text-anchor="start" x="55" y="-72" font-family="Helvetica,sans-Serif" font-size="10.00" fill="#000000">bos_edge_detected = &#39;1&#39; &#160;&#160;</text>
</g>
<!-- st_send_bos&#45;&gt;st_wait -->
<g id="edge4" class="edge transition">
<title>st_send_bos&#45;&gt;st_wait</title>
<path fill="none" stroke="#000000" d="M224.121,-41.5647C256.3389,-48.2908 294,-59.4738 294,-75 294,-157 294,-157 294,-157 294,-167.5924 271.9955,-178.1466 250.6464,-185.8937"/>
<polygon fill="#000000" stroke="#000000" points="249.2694,-182.6666 240.9649,-189.2457 251.5597,-189.2813 249.2694,-182.6666"/>
<text text-anchor="middle" x="295.3895" y="-113" font-family="Helvetica,sans-Serif" font-size="10.00" fill="#000000"> </text>
</g>
</g>
</svg>
