<?xml version="1.0" encoding="UTF-8" standalone="no"?>
<!DOCTYPE svg PUBLIC "-//W3C//DTD SVG 1.1//EN"
 "http://www.w3.org/Graphics/SVG/1.1/DTD/svg11.dtd">
<!-- Generated by graphviz version 2.40.1 (20161225.0304)
 -->
<!-- Title: state transitions Pages: 1 -->
<svg width="978pt" height="868pt"
 viewBox="0.00 0.00 978.00 868.00" xmlns="http://www.w3.org/2000/svg" xmlns:xlink="http://www.w3.org/1999/xlink">
<g id="graph0" class="graph" transform="scale(1 1) rotate(0) translate(4 864)">
<title>state transitions</title>
<polygon fill="#ffffff" stroke="transparent" points="-4,4 -4,-864 974,-864 974,4 -4,4"/>
<g id="clust1" class="cluster state regular">
<title>cluster_sl_frame</title>
<path fill="none" stroke="#000000" stroke-width="2" d="M20,-8C20,-8 950,-8 950,-8 956,-8 962,-14 962,-20 962,-20 962,-840 962,-840 962,-846 956,-852 950,-852 950,-852 20,-852 20,-852 14,-852 8,-846 8,-840 8,-840 8,-20 8,-20 8,-14 14,-8 20,-8"/>
<text text-anchor="start" x="462.5002" y="-833.2" font-family="Helvetica,sans-Serif" font-size="12.00" fill="#000000">sl_frame</text>
</g>
<!-- sl_frame -->
<!-- 0 -->
<g id="node2" class="node state regular">
<title>0</title>
<polygon fill="#ffffff" fill-opacity="0.003922" stroke="transparent" stroke-width="2" points="719,-732 663,-732 663,-696 719,-696 719,-732"/>
<text text-anchor="start" x="687.6646" y="-710.2" font-family="Helvetica,sans-Serif" font-size="12.00" fill="#000000">0</text>
<path fill="none" stroke="#000000" stroke-width="2" d="M675.3333,-697C675.3333,-697 706.6667,-697 706.6667,-697 712.3333,-697 718,-702.6667 718,-708.3333 718,-708.3333 718,-719.6667 718,-719.6667 718,-725.3333 712.3333,-731 706.6667,-731 706.6667,-731 675.3333,-731 675.3333,-731 669.6667,-731 664,-725.3333 664,-719.6667 664,-719.6667 664,-708.3333 664,-708.3333 664,-702.6667 669.6667,-697 675.3333,-697"/>
</g>
<!-- 1 -->
<g id="node3" class="node state regular">
<title>1</title>
<polygon fill="#ffffff" fill-opacity="0.003922" stroke="transparent" stroke-width="2" points="613,-650 557,-650 557,-614 613,-614 613,-650"/>
<text text-anchor="start" x="581.6646" y="-628.2" font-family="Helvetica,sans-Serif" font-size="12.00" fill="#000000">1</text>
<path fill="none" stroke="#000000" stroke-width="2" d="M569.3333,-615C569.3333,-615 600.6667,-615 600.6667,-615 606.3333,-615 612,-620.6667 612,-626.3333 612,-626.3333 612,-637.6667 612,-637.6667 612,-643.3333 606.3333,-649 600.6667,-649 600.6667,-649 569.3333,-649 569.3333,-649 563.6667,-649 558,-643.3333 558,-637.6667 558,-637.6667 558,-626.3333 558,-626.3333 558,-620.6667 563.6667,-615 569.3333,-615"/>
</g>
<!-- 0&#45;&gt;1 -->
<g id="edge1" class="edge transition">
<title>0&#45;&gt;1</title>
<path fill="none" stroke="#000000" d="M667.4752,-695.8015C652.5166,-684.2298 632.965,-669.105 616.6526,-656.486"/>
<polygon fill="#000000" stroke="#000000" points="618.5102,-653.498 608.4591,-650.1476 614.2271,-659.0347 618.5102,-653.498"/>
<text text-anchor="start" x="645" y="-670" font-family="Helvetica,sans-Serif" font-size="10.00" fill="#000000">tcs_fifo_empty = &#39;0&#39; and flt_err = &#39;0&#39; and ev_num_err = &#39;0&#39; &#160;&#160;</text>
</g>
<!-- 2 -->
<g id="node4" class="node state regular">
<title>2</title>
<polygon fill="#ffffff" fill-opacity="0.003922" stroke="transparent" stroke-width="2" points="560,-568 504,-568 504,-532 560,-532 560,-568"/>
<text text-anchor="start" x="528.6646" y="-546.2" font-family="Helvetica,sans-Serif" font-size="12.00" fill="#000000">2</text>
<path fill="none" stroke="#000000" stroke-width="2" d="M516.3333,-533C516.3333,-533 547.6667,-533 547.6667,-533 553.3333,-533 559,-538.6667 559,-544.3333 559,-544.3333 559,-555.6667 559,-555.6667 559,-561.3333 553.3333,-567 547.6667,-567 547.6667,-567 516.3333,-567 516.3333,-567 510.6667,-567 505,-561.3333 505,-555.6667 505,-555.6667 505,-544.3333 505,-544.3333 505,-538.6667 510.6667,-533 516.3333,-533"/>
</g>
<!-- 1&#45;&gt;2 -->
<g id="edge2" class="edge transition">
<title>1&#45;&gt;2</title>
<path fill="none" stroke="#000000" d="M573.2376,-613.8015C566.17,-602.8668 557.0518,-588.7593 549.1873,-576.5916"/>
<polygon fill="#000000" stroke="#000000" points="552.0973,-574.6461 543.7295,-568.1476 546.2184,-578.446 552.0973,-574.6461"/>
<text text-anchor="start" x="562" y="-588" font-family="Helvetica,sans-Serif" font-size="10.00" fill="#000000">size_calc_cnt = 2 &#160;&#160;</text>
</g>
<!-- 3 -->
<g id="node5" class="node state regular">
<title>3</title>
<polygon fill="#ffffff" fill-opacity="0.003922" stroke="transparent" stroke-width="2" points="532,-486 476,-486 476,-450 532,-450 532,-486"/>
<text text-anchor="start" x="500.6646" y="-464.2" font-family="Helvetica,sans-Serif" font-size="12.00" fill="#000000">3</text>
<path fill="none" stroke="#000000" stroke-width="2" d="M488.3333,-451C488.3333,-451 519.6667,-451 519.6667,-451 525.3333,-451 531,-456.6667 531,-462.3333 531,-462.3333 531,-473.6667 531,-473.6667 531,-479.3333 525.3333,-485 519.6667,-485 519.6667,-485 488.3333,-485 488.3333,-485 482.6667,-485 477,-479.3333 477,-473.6667 477,-473.6667 477,-462.3333 477,-462.3333 477,-456.6667 482.6667,-451 488.3333,-451"/>
</g>
<!-- 2&#45;&gt;3 -->
<g id="edge3" class="edge transition">
<title>2&#45;&gt;3</title>
<path fill="none" stroke="#000000" d="M525.7859,-531.8015C522.1608,-521.1853 517.5146,-507.5784 513.4448,-495.6596"/>
<polygon fill="#000000" stroke="#000000" points="516.7405,-494.4801 510.1967,-486.1476 510.116,-496.7421 516.7405,-494.4801"/>
<text text-anchor="middle" x="520.3895" y="-506" font-family="Helvetica,sans-Serif" font-size="10.00" fill="#000000"> </text>
</g>
<!-- 4 -->
<g id="node6" class="node state regular">
<title>4</title>
<polygon fill="#ffffff" fill-opacity="0.003922" stroke="transparent" stroke-width="2" points="517,-404 461,-404 461,-368 517,-368 517,-404"/>
<text text-anchor="start" x="485.6646" y="-382.2" font-family="Helvetica,sans-Serif" font-size="12.00" fill="#000000">4</text>
<path fill="none" stroke="#000000" stroke-width="2" d="M473.3333,-369C473.3333,-369 504.6667,-369 504.6667,-369 510.3333,-369 516,-374.6667 516,-380.3333 516,-380.3333 516,-391.6667 516,-391.6667 516,-397.3333 510.3333,-403 504.6667,-403 504.6667,-403 473.3333,-403 473.3333,-403 467.6667,-403 462,-397.3333 462,-391.6667 462,-391.6667 462,-380.3333 462,-380.3333 462,-374.6667 467.6667,-369 473.3333,-369"/>
</g>
<!-- 3&#45;&gt;4 -->
<g id="edge4" class="edge transition">
<title>3&#45;&gt;4</title>
<path fill="none" stroke="#000000" d="M500.671,-449.8015C498.7484,-439.2915 496.2897,-425.8503 494.1252,-414.0177"/>
<polygon fill="#000000" stroke="#000000" points="497.562,-413.3545 492.3197,-404.1476 490.6763,-414.6142 497.562,-413.3545"/>
<text text-anchor="middle" x="498.3895" y="-424" font-family="Helvetica,sans-Serif" font-size="10.00" fill="#000000"> </text>
</g>
<!-- 5 -->
<g id="node7" class="node state regular">
<title>5</title>
<polygon fill="#ffffff" fill-opacity="0.003922" stroke="transparent" stroke-width="2" points="683,-322 627,-322 627,-286 683,-286 683,-322"/>
<text text-anchor="start" x="651.6646" y="-300.2" font-family="Helvetica,sans-Serif" font-size="12.00" fill="#000000">5</text>
<path fill="none" stroke="#000000" stroke-width="2" d="M639.3333,-287C639.3333,-287 670.6667,-287 670.6667,-287 676.3333,-287 682,-292.6667 682,-298.3333 682,-298.3333 682,-309.6667 682,-309.6667 682,-315.3333 676.3333,-321 670.6667,-321 670.6667,-321 639.3333,-321 639.3333,-321 633.6667,-321 628,-315.3333 628,-309.6667 628,-309.6667 628,-298.3333 628,-298.3333 628,-292.6667 633.6667,-287 639.3333,-287"/>
</g>
<!-- 4&#45;&gt;5 -->
<g id="edge5" class="edge transition">
<title>4&#45;&gt;5</title>
<path fill="none" stroke="#000000" d="M517.1596,-372.0898C544.9071,-358.3833 587.4552,-337.3655 617.937,-322.3082"/>
<polygon fill="#000000" stroke="#000000" points="619.5641,-325.4083 626.9797,-317.8413 616.4638,-319.1322 619.5641,-325.4083"/>
<text text-anchor="start" x="583" y="-342" font-family="Helvetica,sans-Serif" font-size="10.00" fill="#000000">is_normal_mode = 0 &#160;&#160;</text>
</g>
<!-- 6 -->
<g id="node8" class="node state regular">
<title>6</title>
<polygon fill="#ffffff" fill-opacity="0.003922" stroke="transparent" stroke-width="2" points="510,-240 454,-240 454,-204 510,-204 510,-240"/>
<text text-anchor="start" x="478.6646" y="-218.2" font-family="Helvetica,sans-Serif" font-size="12.00" fill="#000000">6</text>
<path fill="none" stroke="#000000" stroke-width="2" d="M466.3333,-205C466.3333,-205 497.6667,-205 497.6667,-205 503.3333,-205 509,-210.6667 509,-216.3333 509,-216.3333 509,-227.6667 509,-227.6667 509,-233.3333 503.3333,-239 497.6667,-239 497.6667,-239 466.3333,-239 466.3333,-239 460.6667,-239 455,-233.3333 455,-227.6667 455,-227.6667 455,-216.3333 455,-216.3333 455,-210.6667 460.6667,-205 466.3333,-205"/>
</g>
<!-- 4&#45;&gt;6 -->
<g id="edge6" class="edge transition">
<title>4&#45;&gt;6</title>
<path fill="none" stroke="#000000" d="M484.5272,-367.7445C483.1553,-360.6846 482,-352.5099 482,-345 482,-345 482,-345 482,-263 482,-258.9516 482,-254.6784 482,-250.48"/>
<polygon fill="#000000" stroke="#000000" points="485.5001,-250.3687 482,-240.3688 478.5001,-250.3688 485.5001,-250.3687"/>
<text text-anchor="start" x="482" y="-307" font-family="Helvetica,sans-Serif" font-size="10.00" fill="#000000">all_ch_size /= 0 &#160;&#160;</text>
<text text-anchor="start" x="482" y="-295" font-family="Helvetica,sans-Serif" font-size="10.00" fill="#000000">not (is_normal_mode = 0) &#160;&#160;</text>
</g>
<!-- 8 -->
<g id="node10" class="node state regular">
<title>8</title>
<polygon fill="#ffffff" fill-opacity="0.003922" stroke="transparent" stroke-width="2" points="507,-52 451,-52 451,-16 507,-16 507,-52"/>
<text text-anchor="start" x="475.6646" y="-30.2" font-family="Helvetica,sans-Serif" font-size="12.00" fill="#000000">8</text>
<path fill="none" stroke="#000000" stroke-width="2" d="M463.3333,-17C463.3333,-17 494.6667,-17 494.6667,-17 500.3333,-17 506,-22.6667 506,-28.3333 506,-28.3333 506,-39.6667 506,-39.6667 506,-45.3333 500.3333,-51 494.6667,-51 494.6667,-51 463.3333,-51 463.3333,-51 457.6667,-51 452,-45.3333 452,-39.6667 452,-39.6667 452,-28.3333 452,-28.3333 452,-22.6667 457.6667,-17 463.3333,-17"/>
</g>
<!-- 4&#45;&gt;8 -->
<g id="edge7" class="edge transition">
<title>4&#45;&gt;8</title>
<path fill="none" stroke="#000000" d="M460.7879,-384.9201C362.053,-380.9572 38,-366.3261 38,-345 38,-345 38,-345 38,-248.5 38,-168.3221 -12.0282,-111.4341 56,-69 88.2357,-48.8923 343.0608,-38.4673 440.9152,-35.1741"/>
<polygon fill="#000000" stroke="#000000" points="441.0891,-38.6703 450.9682,-34.8424 440.8582,-31.6741 441.0891,-38.6703"/>
<text text-anchor="start" x="37" y="-225" font-family="Helvetica,sans-Serif" font-size="10.00" fill="#000000">not (is_normal_mode = 0) &#160;&#160;</text>
<text text-anchor="start" x="37" y="-213" font-family="Helvetica,sans-Serif" font-size="10.00" fill="#000000">not (all_ch_size /= 0) &#160;&#160;</text>
</g>
<!-- 5&#45;&gt;6 -->
<g id="edge8" class="edge transition">
<title>5&#45;&gt;6</title>
<path fill="none" stroke="#000000" d="M626.8195,-290.6428C597.5394,-276.7643 551.5716,-254.9761 519.2967,-239.6782"/>
<polygon fill="#000000" stroke="#000000" points="520.7038,-236.472 510.1684,-235.3515 517.7056,-242.7974 520.7038,-236.472"/>
<text text-anchor="middle" x="581.3895" y="-260" font-family="Helvetica,sans-Serif" font-size="10.00" fill="#000000"> </text>
</g>
<!-- 7 -->
<g id="node9" class="node state regular">
<title>7</title>
<polygon fill="#ffffff" fill-opacity="0.003922" stroke="transparent" stroke-width="2" points="930,-140 874,-140 874,-104 930,-104 930,-140"/>
<text text-anchor="start" x="898.6646" y="-118.2" font-family="Helvetica,sans-Serif" font-size="12.00" fill="#000000">7</text>
<path fill="none" stroke="#000000" stroke-width="2" d="M886.3333,-105C886.3333,-105 917.6667,-105 917.6667,-105 923.3333,-105 929,-110.6667 929,-116.3333 929,-116.3333 929,-127.6667 929,-127.6667 929,-133.3333 923.3333,-139 917.6667,-139 917.6667,-139 886.3333,-139 886.3333,-139 880.6667,-139 875,-133.3333 875,-127.6667 875,-127.6667 875,-116.3333 875,-116.3333 875,-110.6667 880.6667,-105 886.3333,-105"/>
</g>
<!-- 6&#45;&gt;7 -->
<g id="edge9" class="edge transition">
<title>6&#45;&gt;7</title>
<path fill="none" stroke="#000000" d="M510.1999,-204.3956C534.0461,-190.485 569.6223,-171.9697 603.356,-163 660.8888,-147.7022 677.6013,-157.98 737,-154 763.6661,-152.2132 831.3022,-153.3412 857,-146 859.4583,-145.2977 861.9345,-144.4485 864.3934,-143.4945"/>
<polygon fill="#000000" stroke="#000000" points="865.9781,-146.621 873.7163,-139.3843 863.1542,-140.2159 865.9781,-146.621"/>
<text text-anchor="start" x="603" y="-178" font-family="Helvetica,sans-Serif" font-size="10.00" fill="#000000">is_normal_mode = 0 &#160;&#160;</text>
<text text-anchor="start" x="603" y="-166" font-family="Helvetica,sans-Serif" font-size="10.00" fill="#000000">not (ch_sz(ch_counter) /= 1) &#160;&#160;</text>
</g>
<!-- 6&#45;&gt;8 -->
<g id="edge10" class="edge transition">
<title>6&#45;&gt;8</title>
<path fill="none" stroke="#000000" d="M480.2897,-203.7147C479.616,-195.0239 479,-184.4845 479,-175 479,-175 479,-175 479,-75 479,-70.9516 479,-66.6784 479,-62.48"/>
<polygon fill="#000000" stroke="#000000" points="482.5001,-62.3687 479,-52.3688 475.5001,-62.3688 482.5001,-62.3687"/>
<text text-anchor="start" x="479" y="-137" font-family="Helvetica,sans-Serif" font-size="10.00" fill="#000000">ch_counter &lt; active_channels &#45; 1ch_counter &lt; active_channels &#45; 1 &#160;&#160;</text>
<text text-anchor="start" x="479" y="-125" font-family="Helvetica,sans-Serif" font-size="10.00" fill="#000000">not (is_normal_mode = 0) &#160;&#160;</text>
<text text-anchor="start" x="479" y="-113" font-family="Helvetica,sans-Serif" font-size="10.00" fill="#000000">not (ch_sz(channel_int(ch_counter)) /= 1 and ch_sz(channel_int(ch_counter)) /= 0) &#160;&#160;</text>
<text text-anchor="start" x="479" y="-101" font-family="Helvetica,sans-Serif" font-size="10.00" fill="#000000">not (channel_int(ch_counter+1) /= 0) &#160;&#160;</text>
</g>
<!-- 6&#45;&gt;8 -->
<g id="edge11" class="edge transition">
<title>6&#45;&gt;8</title>
<path fill="none" stroke="#000000" d="M453.7904,-220.3272C359.6212,-214.5589 62,-194.7645 62,-175 62,-175 62,-175 62,-75 62,-56.0741 337.6407,-40.8213 440.7168,-35.7791"/>
<polygon fill="#000000" stroke="#000000" points="441.1726,-39.2613 450.9919,-35.2825 440.8346,-32.2694 441.1726,-39.2613"/>
<text text-anchor="start" x="62" y="-131" font-family="Helvetica,sans-Serif" font-size="10.00" fill="#000000">not (is_normal_mode = 0) &#160;&#160;</text>
<text text-anchor="start" x="62" y="-119" font-family="Helvetica,sans-Serif" font-size="10.00" fill="#000000">not (ch_sz(channel_int(ch_counter)) /= 1 and ch_sz(channel_int(ch_counter)) /= 0) &#160;&#160;</text>
<text text-anchor="start" x="62" y="-107" font-family="Helvetica,sans-Serif" font-size="10.00" fill="#000000">not (ch_counter &lt; active_channels &#45; 1) &#160;&#160;</text>
</g>
<!-- 7&#45;&gt;5 -->
<g id="edge12" class="edge transition">
<title>7&#45;&gt;5</title>
<path fill="none" stroke="#000000" d="M873.9221,-138.3012C868.4212,-141.1127 862.6144,-143.8254 857,-146 808.2487,-164.8825 743,-122.7197 743,-175 743,-263 743,-263 743,-263 743,-274.7768 716.777,-285.9136 692.9604,-293.5998"/>
<polygon fill="#000000" stroke="#000000" points="691.8511,-290.2792 683.3281,-296.5729 693.9156,-296.9679 691.8511,-290.2792"/>
<text text-anchor="start" x="743" y="-219" font-family="Helvetica,sans-Serif" font-size="10.00" fill="#000000">ch_counter /= (active_channels &#45; 1) &#160;&#160;</text>
</g>
<!-- 7&#45;&gt;8 -->
<g id="edge13" class="edge transition">
<title>7&#45;&gt;8</title>
<path fill="none" stroke="#000000" d="M873.5703,-105.0818C868.2006,-102.3965 862.5306,-99.8872 857,-98 852.9586,-96.6209 612.2878,-56.2921 517.1252,-40.3733"/>
<polygon fill="#000000" stroke="#000000" points="517.4969,-36.887 507.0565,-38.6893 516.3421,-43.7911 517.4969,-36.887"/>
<text text-anchor="start" x="756" y="-72" font-family="Helvetica,sans-Serif" font-size="10.00" fill="#000000">not (ch_counter /= (active_channels &#45; 1)) &#160;&#160;</text>
</g>
<!-- 8&#45;&gt;0 -->
<g id="edge14" class="edge transition">
<title>8&#45;&gt;0</title>
<path fill="none" stroke="#000000" d="M507.2679,-35.0792C606.3305,-38.9932 932.6299,-53.054 948,-69 980.7178,-102.9435 952,-127.8554 952,-175 952,-330.5 952,-330.5 952,-330.5 952,-355.1707 951,-361.3293 951,-386 951,-673 951,-673 951,-673 951,-695.1584 801.7474,-707.2757 729.4076,-711.8474"/>
<polygon fill="#000000" stroke="#000000" points="729.0859,-708.3605 719.3195,-712.4675 729.5154,-715.3473 729.0859,-708.3605"/>
<text text-anchor="middle" x="952.3895" y="-383" font-family="Helvetica,sans-Serif" font-size="10.00" fill="#000000"> </text>
</g>
<!-- 9 -->
<g id="node11" class="node state regular">
<title>9</title>
<polygon fill="#ffffff" fill-opacity="0.003922" stroke="transparent" stroke-width="2" points="719,-814 663,-814 663,-778 719,-778 719,-814"/>
<text text-anchor="start" x="687.6646" y="-792.2" font-family="Helvetica,sans-Serif" font-size="12.00" fill="#000000">9</text>
<path fill="none" stroke="#000000" stroke-width="2" d="M675.3333,-779C675.3333,-779 706.6667,-779 706.6667,-779 712.3333,-779 718,-784.6667 718,-790.3333 718,-790.3333 718,-801.6667 718,-801.6667 718,-807.3333 712.3333,-813 706.6667,-813 706.6667,-813 675.3333,-813 675.3333,-813 669.6667,-813 664,-807.3333 664,-801.6667 664,-801.6667 664,-790.3333 664,-790.3333 664,-784.6667 669.6667,-779 675.3333,-779"/>
</g>
<!-- 9&#45;&gt;0 -->
<g id="edge15" class="edge transition">
<title>9&#45;&gt;0</title>
<path fill="none" stroke="#000000" d="M691,-777.8015C691,-767.3976 691,-754.1215 691,-742.3768"/>
<polygon fill="#000000" stroke="#000000" points="694.5001,-742.1476 691,-732.1476 687.5001,-742.1476 694.5001,-742.1476"/>
<text text-anchor="middle" x="692.3895" y="-752" font-family="Helvetica,sans-Serif" font-size="10.00" fill="#000000"> </text>
</g>
</g>
</svg>
