<?xml version="1.0" encoding="UTF-8" standalone="no"?>
<!DOCTYPE svg PUBLIC "-//W3C//DTD SVG 1.1//EN"
 "http://www.w3.org/Graphics/SVG/1.1/DTD/svg11.dtd">
<!-- Generated by graphviz version 2.40.1 (20161225.0304)
 -->
<!-- Title: state transitions Pages: 1 -->
<svg width="294pt" height="352pt"
 viewBox="0.00 0.00 294.00 352.00" xmlns="http://www.w3.org/2000/svg" xmlns:xlink="http://www.w3.org/1999/xlink">
<g id="graph0" class="graph" transform="scale(1 1) rotate(0) translate(4 348)">
<title>state transitions</title>
<polygon fill="#ffffff" stroke="transparent" points="-4,4 -4,-348 290,-348 290,4 -4,4"/>
<g id="clust1" class="cluster state regular">
<title>cluster_rdout_state</title>
<path fill="none" stroke="#000000" stroke-width="2" d="M20,-8C20,-8 266,-8 266,-8 272,-8 278,-14 278,-20 278,-20 278,-324 278,-324 278,-330 272,-336 266,-336 266,-336 20,-336 20,-336 14,-336 8,-330 8,-324 8,-324 8,-20 8,-20 8,-14 14,-8 20,-8"/>
<text text-anchor="start" x="112.988" y="-317.2" font-family="Helvetica,sans-Serif" font-size="12.00" fill="#000000">rdout_state</text>
</g>
<!-- rdout_state -->
<!-- st_armed -->
<g id="node2" class="node state regular">
<title>st_armed</title>
<polygon fill="#ffffff" fill-opacity="0.003922" stroke="transparent" stroke-width="2" points="166,-298 94,-298 94,-262 166,-262 166,-298"/>
<text text-anchor="start" x="104.9962" y="-276.2" font-family="Helvetica,sans-Serif" font-size="12.00" fill="#000000">st_armed</text>
<path fill="none" stroke="#000000" stroke-width="2" d="M106.3333,-263C106.3333,-263 153.6667,-263 153.6667,-263 159.3333,-263 165,-268.6667 165,-274.3333 165,-274.3333 165,-285.6667 165,-285.6667 165,-291.3333 159.3333,-297 153.6667,-297 153.6667,-297 106.3333,-297 106.3333,-297 100.6667,-297 95,-291.3333 95,-285.6667 95,-285.6667 95,-274.3333 95,-274.3333 95,-268.6667 100.6667,-263 106.3333,-263"/>
</g>
<!-- st_wr_frame -->
<g id="node3" class="node state regular">
<title>st_wr_frame</title>
<polygon fill="#ffffff" fill-opacity="0.003922" stroke="transparent" stroke-width="2" points="117.5,-216 30.5,-216 30.5,-180 117.5,-180 117.5,-216"/>
<text text-anchor="start" x="41.5" y="-194.2" font-family="Helvetica,sans-Serif" font-size="12.00" fill="#000000">st_wr_frame</text>
<path fill="none" stroke="#000000" stroke-width="2" d="M42.8333,-181C42.8333,-181 105.1667,-181 105.1667,-181 110.8333,-181 116.5,-186.6667 116.5,-192.3333 116.5,-192.3333 116.5,-203.6667 116.5,-203.6667 116.5,-209.3333 110.8333,-215 105.1667,-215 105.1667,-215 42.8333,-215 42.8333,-215 37.1667,-215 31.5,-209.3333 31.5,-203.6667 31.5,-203.6667 31.5,-192.3333 31.5,-192.3333 31.5,-186.6667 37.1667,-181 42.8333,-181"/>
</g>
<!-- st_armed&#45;&gt;st_wr_frame -->
<g id="edge1" class="edge transition">
<title>st_armed&#45;&gt;st_wr_frame</title>
<path fill="none" stroke="#000000" d="M117.5718,-261.8015C110.1042,-250.8668 100.4698,-236.7593 92.1601,-224.5916"/>
<polygon fill="#000000" stroke="#000000" points="94.9234,-222.4317 86.3935,-216.1476 89.1428,-226.3795 94.9234,-222.4317"/>
<text text-anchor="start" x="105" y="-236" font-family="Helvetica,sans-Serif" font-size="10.00" fill="#000000">trigger_i = &#39;1&#39; &#160;&#160;</text>
</g>
<!-- st_swap_fbus -->
<g id="node4" class="node state regular">
<title>st_swap_fbus</title>
<polygon fill="#ffffff" fill-opacity="0.003922" stroke="transparent" stroke-width="2" points="133.5,-134 38.5,-134 38.5,-98 133.5,-98 133.5,-134"/>
<text text-anchor="start" x="49.8214" y="-112.2" font-family="Helvetica,sans-Serif" font-size="12.00" fill="#000000">st_swap_fbus</text>
<path fill="none" stroke="#000000" stroke-width="2" d="M50.8333,-99C50.8333,-99 121.1667,-99 121.1667,-99 126.8333,-99 132.5,-104.6667 132.5,-110.3333 132.5,-110.3333 132.5,-121.6667 132.5,-121.6667 132.5,-127.3333 126.8333,-133 121.1667,-133 121.1667,-133 50.8333,-133 50.8333,-133 45.1667,-133 39.5,-127.3333 39.5,-121.6667 39.5,-121.6667 39.5,-110.3333 39.5,-110.3333 39.5,-104.6667 45.1667,-99 50.8333,-99"/>
</g>
<!-- st_wr_frame&#45;&gt;st_swap_fbus -->
<g id="edge2" class="edge transition">
<title>st_wr_frame&#45;&gt;st_swap_fbus</title>
<path fill="none" stroke="#000000" d="M59.6439,-179.7858C54.5636,-171.1106 50.9202,-160.5638 54.583,-151 55.7146,-148.0452 57.2235,-145.183 58.9695,-142.4531"/>
<polygon fill="#000000" stroke="#000000" points="61.9452,-144.3206 65.1824,-134.2325 56.3607,-140.1 61.9452,-144.3206"/>
<text text-anchor="start" x="54" y="-154" font-family="Helvetica,sans-Serif" font-size="10.00" fill="#000000">not (fr_counter /= 0) &#160;&#160;</text>
</g>
<!-- st_wr_coarse_t -->
<g id="node5" class="node state regular">
<title>st_wr_coarse_t</title>
<polygon fill="#ffffff" fill-opacity="0.003922" stroke="transparent" stroke-width="2" points="183.5,-52 80.5,-52 80.5,-16 183.5,-16 183.5,-52"/>
<text text-anchor="start" x="91.8266" y="-30.2" font-family="Helvetica,sans-Serif" font-size="12.00" fill="#000000">st_wr_coarse_t</text>
<path fill="none" stroke="#000000" stroke-width="2" d="M92.8333,-17C92.8333,-17 171.1667,-17 171.1667,-17 176.8333,-17 182.5,-22.6667 182.5,-28.3333 182.5,-28.3333 182.5,-39.6667 182.5,-39.6667 182.5,-45.3333 176.8333,-51 171.1667,-51 171.1667,-51 92.8333,-51 92.8333,-51 87.1667,-51 81.5,-45.3333 81.5,-39.6667 81.5,-39.6667 81.5,-28.3333 81.5,-28.3333 81.5,-22.6667 87.1667,-17 92.8333,-17"/>
</g>
<!-- st_swap_fbus&#45;&gt;st_wr_coarse_t -->
<g id="edge3" class="edge transition">
<title>st_swap_fbus&#45;&gt;st_wr_coarse_t</title>
<path fill="none" stroke="#000000" d="M96.2089,-97.8015C102.2835,-86.973 110.1035,-73.033 116.8836,-60.9466"/>
<polygon fill="#000000" stroke="#000000" points="119.9796,-62.5814 121.8196,-52.1476 113.8746,-59.1566 119.9796,-62.5814"/>
<text text-anchor="middle" x="113.3895" y="-72" font-family="Helvetica,sans-Serif" font-size="10.00" fill="#000000"> </text>
</g>
<!-- st_wr_coarse_t&#45;&gt;st_armed -->
<g id="edge4" class="edge transition">
<title>st_wr_coarse_t&#45;&gt;st_armed</title>
<path fill="none" stroke="#000000" d="M165.914,-52.0565C172.8087,-58.154 178,-65.7998 178,-75 178,-239 178,-239 178,-239 178,-244.7537 175.9813,-249.8719 172.7718,-254.3732"/>
<polygon fill="#000000" stroke="#000000" points="170.1102,-252.0962 165.8876,-261.8132 175.2482,-256.8503 170.1102,-252.0962"/>
<text text-anchor="start" x="178" y="-154" font-family="Helvetica,sans-Serif" font-size="10.00" fill="#000000">not (write_lsb = &#39;1&#39;) &#160;&#160;</text>
</g>
</g>
</svg>
