<?xml version="1.0" encoding="UTF-8" standalone="no"?>
<!DOCTYPE svg PUBLIC "-//W3C//DTD SVG 1.1//EN"
 "http://www.w3.org/Graphics/SVG/1.1/DTD/svg11.dtd">
<!-- Generated by graphviz version 2.40.1 (20161225.0304)
 -->
<!-- Title: state transitions Pages: 1 -->
<svg width="280pt" height="270pt"
 viewBox="0.00 0.00 280.00 270.00" xmlns="http://www.w3.org/2000/svg" xmlns:xlink="http://www.w3.org/1999/xlink">
<g id="graph0" class="graph" transform="scale(1 1) rotate(0) translate(4 266)">
<title>state transitions</title>
<polygon fill="#ffffff" stroke="transparent" points="-4,4 -4,-266 276,-266 276,4 -4,4"/>
<g id="clust1" class="cluster state regular">
<title>cluster_buffer_state</title>
<path fill="none" stroke="#000000" stroke-width="2" d="M20,-8C20,-8 252,-8 252,-8 258,-8 264,-14 264,-20 264,-20 264,-242 264,-242 264,-248 258,-254 252,-254 252,-254 20,-254 20,-254 14,-254 8,-248 8,-242 8,-242 8,-20 8,-20 8,-14 14,-8 20,-8"/>
<text text-anchor="start" x="104.8206" y="-235.2" font-family="Helvetica,sans-Serif" font-size="12.00" fill="#000000">buffer_state</text>
</g>
<!-- buffer_state -->
<!-- no_hit_no_frame_event -->
<g id="node2" class="node state regular">
<title>no_hit_no_frame_event</title>
<polygon fill="#ffffff" fill-opacity="0.003922" stroke="transparent" stroke-width="2" points="256,-134 108,-134 108,-98 256,-98 256,-134"/>
<text text-anchor="start" x="118.976" y="-112.2" font-family="Helvetica,sans-Serif" font-size="12.00" fill="#000000">no_hit_no_frame_event</text>
<path fill="none" stroke="#000000" stroke-width="2" d="M120.3333,-99C120.3333,-99 243.6667,-99 243.6667,-99 249.3333,-99 255,-104.6667 255,-110.3333 255,-110.3333 255,-121.6667 255,-121.6667 255,-127.3333 249.3333,-133 243.6667,-133 243.6667,-133 120.3333,-133 120.3333,-133 114.6667,-133 109,-127.3333 109,-121.6667 109,-121.6667 109,-110.3333 109,-110.3333 109,-104.6667 114.6667,-99 120.3333,-99"/>
</g>
<!-- sleep -->
<g id="node6" class="node state regular">
<title>sleep</title>
<polygon fill="#ffffff" fill-opacity="0.003922" stroke="transparent" stroke-width="2" points="145,-52 89,-52 89,-16 145,-16 145,-52"/>
<text text-anchor="start" x="102.6624" y="-30.2" font-family="Helvetica,sans-Serif" font-size="12.00" fill="#000000">sleep</text>
<path fill="none" stroke="#000000" stroke-width="2" d="M101.3333,-17C101.3333,-17 132.6667,-17 132.6667,-17 138.3333,-17 144,-22.6667 144,-28.3333 144,-28.3333 144,-39.6667 144,-39.6667 144,-45.3333 138.3333,-51 132.6667,-51 132.6667,-51 101.3333,-51 101.3333,-51 95.6667,-51 90,-45.3333 90,-39.6667 90,-39.6667 90,-28.3333 90,-28.3333 90,-22.6667 95.6667,-17 101.3333,-17"/>
</g>
<!-- no_hit_no_frame_event&#45;&gt;sleep -->
<g id="edge1" class="edge transition">
<title>no_hit_no_frame_event&#45;&gt;sleep</title>
<path fill="none" stroke="#000000" d="M173.2029,-97.7703C168.4204,-88.702 162.0473,-77.8234 155,-69 152.3552,-65.6886 149.3922,-62.4073 146.3185,-59.2578"/>
<polygon fill="#000000" stroke="#000000" points="148.6567,-56.6497 139.0435,-52.1958 143.781,-61.6724 148.6567,-56.6497"/>
<text text-anchor="middle" x="164.3895" y="-72" font-family="Helvetica,sans-Serif" font-size="10.00" fill="#000000"> </text>
</g>
<!-- no_frame_event -->
<g id="node3" class="node state regular">
<title>no_frame_event</title>
<polygon fill="#ffffff" fill-opacity="0.003922" stroke="transparent" stroke-width="2" points="234,-216 126,-216 126,-180 234,-180 234,-216"/>
<text text-anchor="start" x="136.6518" y="-194.2" font-family="Helvetica,sans-Serif" font-size="12.00" fill="#000000">no_frame_event</text>
<path fill="none" stroke="#000000" stroke-width="2" d="M138.3333,-181C138.3333,-181 221.6667,-181 221.6667,-181 227.3333,-181 233,-186.6667 233,-192.3333 233,-192.3333 233,-203.6667 233,-203.6667 233,-209.3333 227.3333,-215 221.6667,-215 221.6667,-215 138.3333,-215 138.3333,-215 132.6667,-215 127,-209.3333 127,-203.6667 127,-203.6667 127,-192.3333 127,-192.3333 127,-186.6667 132.6667,-181 138.3333,-181"/>
</g>
<!-- unbuffer -->
<g id="node5" class="node state regular">
<title>unbuffer</title>
<polygon fill="#ffffff" fill-opacity="0.003922" stroke="transparent" stroke-width="2" points="86,-134 20,-134 20,-98 86,-98 86,-134"/>
<text text-anchor="start" x="30.9908" y="-112.2" font-family="Helvetica,sans-Serif" font-size="12.00" fill="#000000">unbuffer</text>
<path fill="none" stroke="#000000" stroke-width="2" d="M32.3333,-99C32.3333,-99 73.6667,-99 73.6667,-99 79.3333,-99 85,-104.6667 85,-110.3333 85,-110.3333 85,-121.6667 85,-121.6667 85,-127.3333 79.3333,-133 73.6667,-133 73.6667,-133 32.3333,-133 32.3333,-133 26.6667,-133 21,-127.3333 21,-121.6667 21,-121.6667 21,-110.3333 21,-110.3333 21,-104.6667 26.6667,-99 32.3333,-99"/>
</g>
<!-- no_frame_event&#45;&gt;unbuffer -->
<g id="edge2" class="edge transition">
<title>no_frame_event&#45;&gt;unbuffer</title>
<path fill="none" stroke="#000000" d="M166.0383,-179.72C158.0491,-170.2 147.3705,-158.9252 136,-151 134.043,-149.636 115.0918,-141.6194 95.7928,-133.6025"/>
<polygon fill="#000000" stroke="#000000" points="96.942,-130.2902 86.3638,-129.6961 94.2627,-136.7571 96.942,-130.2902"/>
<text text-anchor="start" x="150" y="-154" font-family="Helvetica,sans-Serif" font-size="10.00" fill="#000000">buffer_emp=&#39;0&#39; &#160;&#160;</text>
</g>
<!-- frame_event -->
<g id="node4" class="node state regular">
<title>frame_event</title>
<polygon fill="#ffffff" fill-opacity="0.003922" stroke="transparent" stroke-width="2" points="104,-216 16,-216 16,-180 104,-180 104,-216"/>
<text text-anchor="start" x="26.658" y="-194.2" font-family="Helvetica,sans-Serif" font-size="12.00" fill="#000000">frame_event</text>
<path fill="none" stroke="#000000" stroke-width="2" d="M28.3333,-181C28.3333,-181 91.6667,-181 91.6667,-181 97.3333,-181 103,-186.6667 103,-192.3333 103,-192.3333 103,-203.6667 103,-203.6667 103,-209.3333 97.3333,-215 91.6667,-215 91.6667,-215 28.3333,-215 28.3333,-215 22.6667,-215 17,-209.3333 17,-203.6667 17,-203.6667 17,-192.3333 17,-192.3333 17,-186.6667 22.6667,-181 28.3333,-181"/>
</g>
<!-- frame_event&#45;&gt;unbuffer -->
<g id="edge3" class="edge transition">
<title>frame_event&#45;&gt;unbuffer</title>
<path fill="none" stroke="#000000" d="M58.4465,-179.8015C57.5583,-169.3976 56.425,-156.1215 55.4224,-144.3768"/>
<polygon fill="#000000" stroke="#000000" points="58.8872,-143.8136 54.5492,-134.1476 51.9125,-144.4091 58.8872,-143.8136"/>
<text text-anchor="start" x="56" y="-154" font-family="Helvetica,sans-Serif" font-size="10.00" fill="#000000">buffer_emp=&#39;0&#39; &#160;&#160;</text>
</g>
<!-- unbuffer&#45;&gt;sleep -->
<g id="edge4" class="edge transition">
<title>unbuffer&#45;&gt;sleep</title>
<path fill="none" stroke="#000000" d="M56.8137,-97.8289C59.3914,-88.5643 63.5016,-77.492 69.798,-69 72.9082,-64.8052 76.6618,-60.8886 80.6772,-57.3067"/>
<polygon fill="#000000" stroke="#000000" points="83.0715,-59.8708 88.6211,-50.8457 78.6546,-54.4402 83.0715,-59.8708"/>
<text text-anchor="start" x="69" y="-72" font-family="Helvetica,sans-Serif" font-size="10.00" fill="#000000">buffer_counter=1 &#160;&#160;</text>
</g>
</g>
</svg>
