<?xml version="1.0" encoding="UTF-8" standalone="no"?>
<!DOCTYPE svg PUBLIC "-//W3C//DTD SVG 1.1//EN"
 "http://www.w3.org/Graphics/SVG/1.1/DTD/svg11.dtd">
<!-- Generated by graphviz version 2.40.1 (20161225.0304)
 -->
<!-- Title: state transitions Pages: 1 -->
<svg width="916pt" height="612pt"
 viewBox="0.00 0.00 916.00 612.00" xmlns="http://www.w3.org/2000/svg" xmlns:xlink="http://www.w3.org/1999/xlink">
<g id="graph0" class="graph" transform="scale(1 1) rotate(0) translate(4 608)">
<title>state transitions</title>
<polygon fill="#ffffff" stroke="transparent" points="-4,4 -4,-608 912,-608 912,4 -4,4"/>
<g id="clust1" class="cluster state regular">
<title>cluster_ana_state</title>
<path fill="none" stroke="#000000" stroke-width="2" d="M20,-8C20,-8 888,-8 888,-8 894,-8 900,-14 900,-20 900,-20 900,-584 900,-584 900,-590 894,-596 888,-596 888,-596 20,-596 20,-596 14,-596 8,-590 8,-584 8,-584 8,-20 8,-20 8,-14 14,-8 20,-8"/>
<text text-anchor="start" x="427.6528" y="-577.2" font-family="Helvetica,sans-Serif" font-size="12.00" fill="#000000">ana_state</text>
</g>
<!-- ana_state -->
<!-- st_reset -->
<g id="node2" class="node state regular">
<title>st_reset</title>
<polygon fill="#ffffff" fill-opacity="0.003922" stroke="transparent" stroke-width="2" points="418,-558 354,-558 354,-522 418,-522 418,-558"/>
<text text-anchor="start" x="364.6616" y="-536.2" font-family="Helvetica,sans-Serif" font-size="12.00" fill="#000000">st_reset</text>
<path fill="none" stroke="#000000" stroke-width="2" d="M366.3333,-523C366.3333,-523 405.6667,-523 405.6667,-523 411.3333,-523 417,-528.6667 417,-534.3333 417,-534.3333 417,-545.6667 417,-545.6667 417,-551.3333 411.3333,-557 405.6667,-557 405.6667,-557 366.3333,-557 366.3333,-557 360.6667,-557 355,-551.3333 355,-545.6667 355,-545.6667 355,-534.3333 355,-534.3333 355,-528.6667 360.6667,-523 366.3333,-523"/>
</g>
<!-- st_reset&#45;&gt;st_reset -->
<g id="edge2" class="edge transition">
<title>st_reset&#45;&gt;st_reset</title>
<path fill="none" stroke="#000000" d="M418.1538,-544.8643C430.1365,-545.0238 440,-543.4023 440,-540 440,-537.6609 435.3379,-536.1635 428.5304,-535.5079"/>
<polygon fill="#000000" stroke="#000000" points="428.2729,-531.9966 418.1538,-535.1357 428.0219,-538.9921 428.2729,-531.9966"/>
<text text-anchor="start" x="440" y="-537" font-family="Helvetica,sans-Serif" font-size="10.00" fill="#000000">not (RESET = &#39;0&#39;) &#160;&#160;</text>
</g>
<!-- st_sleep -->
<g id="node3" class="node state regular">
<title>st_sleep</title>
<polygon fill="#ffffff" fill-opacity="0.003922" stroke="transparent" stroke-width="2" points="420,-476 354,-476 354,-440 420,-440 420,-476"/>
<text text-anchor="start" x="364.6596" y="-454.2" font-family="Helvetica,sans-Serif" font-size="12.00" fill="#000000">st_sleep</text>
<path fill="none" stroke="#000000" stroke-width="2" d="M366.3333,-441C366.3333,-441 407.6667,-441 407.6667,-441 413.3333,-441 419,-446.6667 419,-452.3333 419,-452.3333 419,-463.6667 419,-463.6667 419,-469.3333 413.3333,-475 407.6667,-475 407.6667,-475 366.3333,-475 366.3333,-475 360.6667,-475 355,-469.3333 355,-463.6667 355,-463.6667 355,-452.3333 355,-452.3333 355,-446.6667 360.6667,-441 366.3333,-441"/>
</g>
<!-- st_reset&#45;&gt;st_sleep -->
<g id="edge1" class="edge transition">
<title>st_reset&#45;&gt;st_sleep</title>
<path fill="none" stroke="#000000" d="M359.8322,-521.7119C351.5031,-513.5264 345.4774,-503.3879 349.954,-493 351.3623,-489.732 353.2425,-486.6269 355.4115,-483.7143"/>
<polygon fill="#000000" stroke="#000000" points="358.1785,-485.8674 362.1372,-476.0399 352.914,-481.2537 358.1785,-485.8674"/>
<text text-anchor="start" x="349" y="-496" font-family="Helvetica,sans-Serif" font-size="10.00" fill="#000000">RESET = &#39;0&#39; &#160;&#160;</text>
</g>
<!-- st_sleep&#45;&gt;st_reset -->
<g id="edge3" class="edge transition">
<title>st_sleep&#45;&gt;st_reset</title>
<path fill="none" stroke="#000000" d="M406.3296,-476.4429C412.7568,-484.8153 417.4887,-495.0546 414,-505 412.9769,-507.9165 411.5973,-510.7705 409.9964,-513.5113"/>
<polygon fill="#000000" stroke="#000000" points="407.0686,-511.5921 404.2947,-521.8174 412.8397,-515.5537 407.0686,-511.5921"/>
<text text-anchor="start" x="415" y="-496" font-family="Helvetica,sans-Serif" font-size="10.00" fill="#000000">reset =&#39;1&#39; &#160;&#160;</text>
</g>
<!-- st_sleep&#45;&gt;st_sleep -->
<g id="edge4" class="edge transition">
<title>st_sleep&#45;&gt;st_sleep</title>
<path fill="none" stroke="#000000" d="M420.0221,-460.4338C432.1032,-460.4997 442,-459.6885 442,-458 442,-456.8392 437.3222,-456.093 430.4728,-455.7614"/>
<polygon fill="#000000" stroke="#000000" points="430.0858,-452.2536 420.0221,-455.5662 429.955,-459.2524 430.0858,-452.2536"/>
<text text-anchor="start" x="442" y="-455" font-family="Helvetica,sans-Serif" font-size="10.00" fill="#000000">not (reset =&#39;1&#39;) &#160;&#160;</text>
</g>
<!-- st_sleep&#45;&gt;st_sleep -->
<g id="edge6" class="edge transition">
<title>st_sleep&#45;&gt;st_sleep</title>
<path fill="none" stroke="#000000" d="M420.2379,-461.8038C459.5769,-464.0414 514.492,-462.7734 514.492,-458 514.492,-453.6368 468.6099,-452.2024 430.6804,-453.697"/>
<polygon fill="#000000" stroke="#000000" points="430.0594,-450.2226 420.2379,-454.1962 430.3937,-457.2146 430.0594,-450.2226"/>
<text text-anchor="start" x="514.492" y="-455" font-family="Helvetica,sans-Serif" font-size="10.00" fill="#000000">not (frame_ff_empty = &#39;0&#39;) &#160;&#160;</text>
</g>
<!-- st_read_frame -->
<g id="node4" class="node state regular">
<title>st_read_frame</title>
<polygon fill="#ffffff" fill-opacity="0.003922" stroke="transparent" stroke-width="2" points="115.5,-394 16.5,-394 16.5,-358 115.5,-358 115.5,-394"/>
<text text-anchor="start" x="27.8252" y="-372.2" font-family="Helvetica,sans-Serif" font-size="12.00" fill="#000000">st_read_frame</text>
<path fill="none" stroke="#000000" stroke-width="2" d="M28.8333,-359C28.8333,-359 103.1667,-359 103.1667,-359 108.8333,-359 114.5,-364.6667 114.5,-370.3333 114.5,-370.3333 114.5,-381.6667 114.5,-381.6667 114.5,-387.3333 108.8333,-393 103.1667,-393 103.1667,-393 28.8333,-393 28.8333,-393 23.1667,-393 17.5,-387.3333 17.5,-381.6667 17.5,-381.6667 17.5,-370.3333 17.5,-370.3333 17.5,-364.6667 23.1667,-359 28.8333,-359"/>
</g>
<!-- st_sleep&#45;&gt;st_read_frame -->
<g id="edge5" class="edge transition">
<title>st_sleep&#45;&gt;st_read_frame</title>
<path fill="none" stroke="#000000" d="M353.9047,-456.5704C277.2996,-452.9464 92.7784,-442.291 72.832,-423 67.8144,-418.1473 65.3683,-411.3644 64.3415,-404.4585"/>
<polygon fill="#000000" stroke="#000000" points="67.8339,-404.2261 63.7186,-394.4632 60.8475,-404.6615 67.8339,-404.2261"/>
<text text-anchor="start" x="72" y="-414" font-family="Helvetica,sans-Serif" font-size="10.00" fill="#000000">frame_ff_empty = &#39;0&#39; &#160;&#160;</text>
</g>
<!-- st_rd_coarse_t -->
<g id="node5" class="node state regular">
<title>st_rd_coarse_t</title>
<polygon fill="#ffffff" fill-opacity="0.003922" stroke="transparent" stroke-width="2" points="117.5,-264 16.5,-264 16.5,-228 117.5,-228 117.5,-264"/>
<text text-anchor="start" x="27.8226" y="-242.2" font-family="Helvetica,sans-Serif" font-size="12.00" fill="#000000">st_rd_coarse_t</text>
<path fill="none" stroke="#000000" stroke-width="2" d="M28.8333,-229C28.8333,-229 105.1667,-229 105.1667,-229 110.8333,-229 116.5,-234.6667 116.5,-240.3333 116.5,-240.3333 116.5,-251.6667 116.5,-251.6667 116.5,-257.3333 110.8333,-263 105.1667,-263 105.1667,-263 28.8333,-263 28.8333,-263 23.1667,-263 17.5,-257.3333 17.5,-251.6667 17.5,-251.6667 17.5,-240.3333 17.5,-240.3333 17.5,-234.6667 23.1667,-229 28.8333,-229"/>
</g>
<!-- st_read_frame&#45;&gt;st_rd_coarse_t -->
<g id="edge7" class="edge transition">
<title>st_read_frame&#45;&gt;st_rd_coarse_t</title>
<path fill="none" stroke="#000000" d="M58.8437,-357.7406C57.0911,-352.4264 55.4661,-346.5548 54.583,-341 51.2335,-319.9313 51.8356,-314.1557 54.583,-293 55.3907,-286.7805 56.7758,-280.2114 58.335,-274.0198"/>
<polygon fill="#000000" stroke="#000000" points="61.7902,-274.6535 61.0522,-264.0844 55.0381,-272.8068 61.7902,-274.6535"/>
<text text-anchor="start" x="54" y="-314" font-family="Helvetica,sans-Serif" font-size="10.00" fill="#000000">not (fr_counter /= 0) &#160;&#160;</text>
</g>
<!-- st_wait_ana -->
<g id="node6" class="node state regular">
<title>st_wait_ana</title>
<polygon fill="#ffffff" fill-opacity="0.003922" stroke="transparent" stroke-width="2" points="148,-170 62,-170 62,-134 148,-134 148,-170"/>
<text text-anchor="start" x="72.99" y="-148.2" font-family="Helvetica,sans-Serif" font-size="12.00" fill="#000000">st_wait_ana</text>
<path fill="none" stroke="#000000" stroke-width="2" d="M74.3333,-135C74.3333,-135 135.6667,-135 135.6667,-135 141.3333,-135 147,-140.6667 147,-146.3333 147,-146.3333 147,-157.6667 147,-157.6667 147,-163.3333 141.3333,-169 135.6667,-169 135.6667,-169 74.3333,-169 74.3333,-169 68.6667,-169 63,-163.3333 63,-157.6667 63,-157.6667 63,-146.3333 63,-146.3333 63,-140.6667 68.6667,-135 74.3333,-135"/>
</g>
<!-- st_rd_coarse_t&#45;&gt;st_wait_ana -->
<g id="edge8" class="edge transition">
<title>st_rd_coarse_t&#45;&gt;st_wait_ana</title>
<path fill="none" stroke="#000000" d="M57.1507,-227.8429C51.9821,-215.7101 47.9671,-199.7063 54.612,-187 56.5016,-183.3868 58.9527,-180.0716 61.7553,-177.0461"/>
<polygon fill="#000000" stroke="#000000" points="64.3121,-179.4506 69.3258,-170.1172 59.586,-174.2869 64.3121,-179.4506"/>
<text text-anchor="start" x="54" y="-190" font-family="Helvetica,sans-Serif" font-size="10.00" fill="#000000">not (read_lsb = &#39;1&#39;) &#160;&#160;</text>
</g>
<!-- st_wait_ana&#45;&gt;st_sleep -->
<g id="edge9" class="edge transition">
<title>st_wait_ana&#45;&gt;st_sleep</title>
<path fill="none" stroke="#000000" d="M132.9163,-170.2142C138.3902,-175.0376 143.5097,-180.687 147,-187 166.3119,-221.9305 151.3251,-236.8314 159,-276 165.4879,-309.1108 178,-315.7595 178,-349.5 178,-417 178,-417 178,-417 178,-433.7343 282.5092,-447.3035 343.7228,-453.816"/>
<polygon fill="#000000" stroke="#000000" points="343.5744,-457.3194 353.8833,-454.8747 344.2999,-450.3571 343.5744,-457.3194"/>
<text text-anchor="start" x="177" y="-332" font-family="Helvetica,sans-Serif" font-size="10.00" fill="#000000">hit_cnt= &quot;0000&quot; &#160;&#160;</text>
<text text-anchor="start" x="177" y="-320" font-family="Helvetica,sans-Serif" font-size="10.00" fill="#000000">prsc_cnt /= 0prsc_cnt /= 0 &#160;&#160;</text>
<text text-anchor="start" x="177" y="-308" font-family="Helvetica,sans-Serif" font-size="10.00" fill="#000000">buffer_state=sleepbuffer_state=sleep &#160;&#160;</text>
<text text-anchor="start" x="177" y="-296" font-family="Helvetica,sans-Serif" font-size="10.00" fill="#000000">count_a = 1 &#160;&#160;</text>
</g>
<!-- st_write_ana -->
<g id="node7" class="node state regular">
<title>st_write_ana</title>
<polygon fill="#ffffff" fill-opacity="0.003922" stroke="transparent" stroke-width="2" points="508,-52 418,-52 418,-16 508,-16 508,-52"/>
<text text-anchor="start" x="428.9926" y="-30.2" font-family="Helvetica,sans-Serif" font-size="12.00" fill="#000000">st_write_ana</text>
<path fill="none" stroke="#000000" stroke-width="2" d="M430.3333,-17C430.3333,-17 495.6667,-17 495.6667,-17 501.3333,-17 507,-22.6667 507,-28.3333 507,-28.3333 507,-39.6667 507,-39.6667 507,-45.3333 501.3333,-51 495.6667,-51 495.6667,-51 430.3333,-51 430.3333,-51 424.6667,-51 419,-45.3333 419,-39.6667 419,-39.6667 419,-28.3333 419,-28.3333 419,-22.6667 424.6667,-17 430.3333,-17"/>
</g>
<!-- st_wait_ana&#45;&gt;st_write_ana -->
<g id="edge10" class="edge transition">
<title>st_wait_ana&#45;&gt;st_write_ana</title>
<path fill="none" stroke="#000000" d="M69.314,-133.8847C63.3864,-129.2194 58.0515,-123.6082 54.595,-117 44.7073,-98.0965 40.1684,-84.7158 54.595,-69 77.998,-43.5056 301.639,-36.547 407.7026,-34.6751"/>
<polygon fill="#000000" stroke="#000000" points="407.9554,-38.1715 417.8954,-34.5045 407.8382,-31.1725 407.9554,-38.1715"/>
<text text-anchor="start" x="54" y="-108" font-family="Helvetica,sans-Serif" font-size="10.00" fill="#000000">prsc_cnt /= 0prsc_cnt /= 0 &#160;&#160;</text>
<text text-anchor="start" x="54" y="-96" font-family="Helvetica,sans-Serif" font-size="10.00" fill="#000000">buffer_state=sleepbuffer_state=sleep &#160;&#160;</text>
<text text-anchor="start" x="54" y="-84" font-family="Helvetica,sans-Serif" font-size="10.00" fill="#000000">count_a = 1 &#160;&#160;</text>
<text text-anchor="start" x="54" y="-72" font-family="Helvetica,sans-Serif" font-size="10.00" fill="#000000">not (hit_cnt= &quot;0000&quot;) &#160;&#160;</text>
</g>
<!-- st_wait_ana&#45;&gt;st_write_ana -->
<g id="edge11" class="edge transition">
<title>st_wait_ana&#45;&gt;st_write_ana</title>
<path fill="none" stroke="#000000" d="M148.2231,-146.0228C173.2571,-141.0964 204.5524,-132.3289 229,-117 253.1646,-101.8485 246.7435,-82.9965 271.595,-69 294.4028,-56.1546 359.7423,-46.0349 407.7595,-40.0485"/>
<polygon fill="#000000" stroke="#000000" points="408.2184,-43.5185 417.7214,-38.8342 407.3714,-36.5699 408.2184,-43.5185"/>
<text text-anchor="start" x="271" y="-102" font-family="Helvetica,sans-Serif" font-size="10.00" fill="#000000">buffer_state=sleepbuffer_state=sleep &#160;&#160;</text>
<text text-anchor="start" x="271" y="-90" font-family="Helvetica,sans-Serif" font-size="10.00" fill="#000000">count_a = 1 &#160;&#160;</text>
<text text-anchor="start" x="271" y="-78" font-family="Helvetica,sans-Serif" font-size="10.00" fill="#000000">not (prsc_cnt /= 0) &#160;&#160;</text>
</g>
<!-- st_write_ana&#45;&gt;st_sleep -->
<g id="edge12" class="edge transition">
<title>st_write_ana&#45;&gt;st_sleep</title>
<path fill="none" stroke="#000000" d="M463.9645,-52.28C463.9523,-70.6499 461.1288,-98.7813 446,-117 371.4859,-206.7327 268.0406,-119.2106 202.955,-216 188.0746,-238.1288 185.1773,-256.1238 202.955,-276 225.6205,-301.3409 328.5397,-271.652 355,-293 375.619,-309.6353 374,-323.007 374,-349.5 374,-417 374,-417 374,-417 374,-421.2844 374.653,-425.7077 375.6663,-429.9926"/>
<polygon fill="#000000" stroke="#000000" points="372.3244,-431.0336 378.5468,-439.6087 379.03,-429.0249 372.3244,-431.0336"/>
<text text-anchor="start" x="202" y="-267" font-family="Helvetica,sans-Serif" font-size="10.00" fill="#000000">hit_wr_cnt=hit_cnthit_wr_cnt=hit_cnt &#160;&#160;</text>
<text text-anchor="start" x="202" y="-255" font-family="Helvetica,sans-Serif" font-size="10.00" fill="#000000">cf_is_written=&#39;0&#39;cf_is_written=&#39;0&#39; &#160;&#160;</text>
<text text-anchor="start" x="202" y="-243" font-family="Helvetica,sans-Serif" font-size="10.00" fill="#000000">prsc_cnt /= 0prsc_cnt /= 0 &#160;&#160;</text>
<text text-anchor="start" x="202" y="-231" font-family="Helvetica,sans-Serif" font-size="10.00" fill="#000000">wd_counter = 1 &#160;&#160;</text>
<text text-anchor="start" x="202" y="-219" font-family="Helvetica,sans-Serif" font-size="10.00" fill="#000000">not (sec_alg_is_on=&#39;1&#39;) &#160;&#160;</text>
</g>
<!-- st_write_ana&#45;&gt;st_sleep -->
<g id="edge13" class="edge transition">
<title>st_write_ana&#45;&gt;st_sleep</title>
<path fill="none" stroke="#000000" d="M467.7268,-52.0923C468.2542,-54.7284 468.7064,-57.4224 469,-60 471.9021,-85.4825 467.2393,-92.3957 460,-117 437.6795,-192.8609 400,-205.4235 400,-284.5 400,-417 400,-417 400,-417 400,-421.2844 399.347,-425.7077 398.3337,-429.9926"/>
<polygon fill="#000000" stroke="#000000" points="394.97,-429.0249 395.4532,-439.6087 401.6756,-431.0336 394.97,-429.0249"/>
<text text-anchor="start" x="413" y="-261" font-family="Helvetica,sans-Serif" font-size="10.00" fill="#000000">hit_wr_cnt_1=hit_cnt_1 &#160;&#160;</text>
<text text-anchor="start" x="413" y="-249" font-family="Helvetica,sans-Serif" font-size="10.00" fill="#000000">prsc_cnt /= 0prsc_cnt /= 0 &#160;&#160;</text>
<text text-anchor="start" x="413" y="-237" font-family="Helvetica,sans-Serif" font-size="10.00" fill="#000000">wd_counter = 1 &#160;&#160;</text>
<text text-anchor="start" x="413" y="-225" font-family="Helvetica,sans-Serif" font-size="10.00" fill="#000000">not (cf_is_written=&#39;0&#39;) &#160;&#160;</text>
</g>
<!-- st_write_ana&#45;&gt;st_sleep -->
<g id="edge14" class="edge transition">
<title>st_write_ana&#45;&gt;st_sleep</title>
<path fill="none" stroke="#000000" d="M508.011,-41.5436C536.1183,-49.1239 567,-64.0416 567,-93 567,-417 567,-417 567,-417 567,-430.972 483.4857,-444.9326 430.229,-452.4147"/>
<polygon fill="#000000" stroke="#000000" points="429.4431,-448.9899 420.0148,-453.8229 430.3991,-455.9243 429.4431,-448.9899"/>
<text text-anchor="start" x="567" y="-261" font-family="Helvetica,sans-Serif" font-size="10.00" fill="#000000">hit_wr_cnt=hit_cnthit_wr_cnt=hit_cnt &#160;&#160;</text>
<text text-anchor="start" x="567" y="-249" font-family="Helvetica,sans-Serif" font-size="10.00" fill="#000000">cf_is_written=&#39;0&#39;cf_is_written=&#39;0&#39; &#160;&#160;</text>
<text text-anchor="start" x="567" y="-237" font-family="Helvetica,sans-Serif" font-size="10.00" fill="#000000">wd_counter = 0 &#160;&#160;</text>
<text text-anchor="start" x="567" y="-225" font-family="Helvetica,sans-Serif" font-size="10.00" fill="#000000">not (sec_alg_is_on=&#39;1&#39;) &#160;&#160;</text>
</g>
<!-- st_write_ana&#45;&gt;st_sleep -->
<g id="edge15" class="edge transition">
<title>st_write_ana&#45;&gt;st_sleep</title>
<path fill="none" stroke="#000000" d="M508.2239,-37.7602C596.0181,-45.6711 781,-65.5915 781,-93 781,-417 781,-417 781,-417 781,-434.4741 532.5959,-450.0478 430.2632,-455.7222"/>
<polygon fill="#000000" stroke="#000000" points="430.0458,-452.2287 420.2527,-456.2714 430.4294,-459.2182 430.0458,-452.2287"/>
<text text-anchor="start" x="781" y="-255" font-family="Helvetica,sans-Serif" font-size="10.00" fill="#000000">hit_wr_cnt_1=hit_cnt_1 &#160;&#160;</text>
<text text-anchor="start" x="781" y="-243" font-family="Helvetica,sans-Serif" font-size="10.00" fill="#000000">wd_counter = 0 &#160;&#160;</text>
<text text-anchor="start" x="781" y="-231" font-family="Helvetica,sans-Serif" font-size="10.00" fill="#000000">not (cf_is_written=&#39;0&#39;) &#160;&#160;</text>
</g>
</g>
</svg>
